<svg version="1.1" viewBox="0.0 0.0 1200.0 1200.0" fill="none" stroke="none" stroke-linecap="square" stroke-miterlimit="10" xmlns:xlink="http://www.w3.org/1999/xlink" xmlns="http://www.w3.org/2000/svg"><clipPath id="p.0"><path d="m0 0l1200.0 0l0 1200.0l-1200.0 0l0 -1200.0z" clip-rule="nonzero"/></clipPath><g clip-path="url(#p.0)"><path fill="#000000" fill-opacity="0.0" d="m0 0l1200.0 0l0 1200.0l-1200.0 0z" fill-rule="evenodd"/><path fill="#000000" fill-opacity="0.0" d="m533.71783 136.01706l66.299255 132.56693" fill-rule="evenodd"/><path stroke="#91b3bc" stroke-width="8.0" stroke-linejoin="round" stroke-linecap="butt" d="m533.71783 136.01706l66.299255 132.56693" fill-rule="evenodd"/><path fill="#000000" fill-opacity="0.0" d="m666.2848 136.01706l-66.2677 132.56693" fill-rule="evenodd"/><path stroke="#91b3bc" stroke-width="8.0" stroke-linejoin="round" stroke-linecap="butt" d="m666.2848 136.01706l-66.2677 132.56693" fill-rule="evenodd"/><path fill="#000000" fill-opacity="0.0" d="m600.00134 533.71783l0 -265.13385" fill-rule="evenodd"/><path stroke="#91b3bc" stroke-width="8.0" stroke-linejoin="round" stroke-linecap="butt" d="m600.00134 533.71783l0 -265.13385" fill-rule="evenodd"/><path fill="#000000" fill-opacity="0.0" d="m600.00134 202.30052l0 66.29921" fill-rule="evenodd"/><path stroke="#91b3bc" stroke-width="8.0" stroke-linejoin="round" stroke-linecap="butt" d="m600.00134 202.30052l0 66.29921" fill-rule="evenodd"/><path fill="#000000" fill-opacity="0.0" d="m136.01706 666.2848l132.56693 -66.2677" fill-rule="evenodd"/><path stroke="#91b3bc" stroke-width="8.0" stroke-linejoin="round" stroke-linecap="butt" d="m136.01706 666.2848l132.56693 -66.2677" fill-rule="evenodd"/><path fill="#000000" fill-opacity="0.0" d="m136.01706 533.71783l132.56693 66.2677" fill-rule="evenodd"/><path stroke="#91b3bc" stroke-width="8.0" stroke-linejoin="round" stroke-linecap="butt" d="m136.01706 533.71783l132.56693 66.2677" fill-rule="evenodd"/><path fill="#000000" fill-opacity="0.0" d="m533.71783 600.00134l-265.13385 0" fill-rule="evenodd"/><path stroke="#91b3bc" stroke-width="8.0" stroke-linejoin="round" stroke-linecap="butt" d="m533.71783 600.00134l-265.13385 0" fill-rule="evenodd"/><path fill="#000000" fill-opacity="0.0" d="m202.30052 600.00134l66.267715 0" fill-rule="evenodd"/><path stroke="#91b3bc" stroke-width="8.0" stroke-linejoin="round" stroke-linecap="butt" d="m202.30052 600.00134l66.267715 0" fill-rule="evenodd"/><path fill="#000000" fill-opacity="0.0" d="m1063.9856 533.71783l-132.56696 66.2677" fill-rule="evenodd"/><path stroke="#91b3bc" stroke-width="8.0" stroke-linejoin="round" stroke-linecap="butt" d="m1063.9856 533.71783l-132.56696 66.2677" fill-rule="evenodd"/><path fill="#000000" fill-opacity="0.0" d="m1063.9856 666.2848l-132.56696 -66.2677" fill-rule="evenodd"/><path stroke="#91b3bc" stroke-width="8.0" stroke-linejoin="round" stroke-linecap="butt" d="m1063.9856 666.2848l-132.56696 -66.2677" fill-rule="evenodd"/><path fill="#000000" fill-opacity="0.0" d="m666.2848 600.00134l265.13385 0" fill-rule="evenodd"/><path stroke="#91b3bc" stroke-width="8.0" stroke-linejoin="round" stroke-linecap="butt" d="m666.2848 600.00134l265.13385 0" fill-rule="evenodd"/><path fill="#000000" fill-opacity="0.0" d="m997.7021 600.00134l-66.2677 0" fill-rule="evenodd"/><path stroke="#91b3bc" stroke-width="8.0" stroke-linejoin="round" stroke-linecap="butt" d="m997.7021 600.00134l-66.2677 0" fill-rule="evenodd"/><path fill="#000000" fill-opacity="0.0" d="m974.9541 881.21484l-140.59595 -46.880188" fill-rule="evenodd"/><path stroke="#91b3bc" stroke-width="8.0" stroke-linejoin="round" stroke-linecap="butt" d="m974.9541 881.21484l-140.59595 -46.880188" fill-rule="evenodd"/><path fill="#000000" fill-opacity="0.0" d="m881.21606 974.95294l-46.880188 -140.59601" fill-rule="evenodd"/><path stroke="#91b3bc" stroke-width="8.0" stroke-linejoin="round" stroke-linecap="butt" d="m881.21606 974.95294l-46.880188 -140.59601" fill-rule="evenodd"/><path fill="#000000" fill-opacity="0.0" d="m646.87085 646.8696l187.47614 187.4762" fill-rule="evenodd"/><path stroke="#91b3bc" stroke-width="8.0" stroke-linejoin="round" stroke-linecap="butt" d="m646.87085 646.8696l187.47614 187.4762" fill-rule="evenodd"/><path fill="#000000" fill-opacity="0.0" d="m881.21606 881.21484l-46.85791 -46.85791" fill-rule="evenodd"/><path stroke="#91b3bc" stroke-width="8.0" stroke-linejoin="round" stroke-linecap="butt" d="m881.21606 881.21484l-46.85791 -46.85791" fill-rule="evenodd"/><path fill="#000000" fill-opacity="0.0" d="m881.21484 225.04851l-46.880188 140.59596" fill-rule="evenodd"/><path stroke="#91b3bc" stroke-width="8.0" stroke-linejoin="round" stroke-linecap="butt" d="m881.21484 225.04851l-46.880188 140.59596" fill-rule="evenodd"/><path fill="#000000" fill-opacity="0.0" d="m974.95294 318.7866l-140.59601 46.880157" fill-rule="evenodd"/><path stroke="#91b3bc" stroke-width="8.0" stroke-linejoin="round" stroke-linecap="butt" d="m974.95294 318.7866l-140.59601 46.880157" fill-rule="evenodd"/><path fill="#000000" fill-opacity="0.0" d="m646.8696 553.1318l187.4762 -187.47617" fill-rule="evenodd"/><path stroke="#91b3bc" stroke-width="8.0" stroke-linejoin="round" stroke-linecap="butt" d="m646.8696 553.1318l187.4762 -187.47617" fill-rule="evenodd"/><path fill="#000000" fill-opacity="0.0" d="m881.21484 318.7866l-46.85791 46.85788" fill-rule="evenodd"/><path stroke="#91b3bc" stroke-width="8.0" stroke-linejoin="round" stroke-linecap="butt" d="m881.21484 318.7866l-46.85791 46.85788" fill-rule="evenodd"/><path fill="#000000" fill-opacity="0.0" d="m225.04906 881.21484l140.596 -46.880188" fill-rule="evenodd"/><path stroke="#91b3bc" stroke-width="8.0" stroke-linejoin="round" stroke-linecap="butt" d="m225.04906 881.21484l140.596 -46.880188" fill-rule="evenodd"/><path fill="#000000" fill-opacity="0.0" d="m318.78714 974.95294l46.880157 -140.59601" fill-rule="evenodd"/><path stroke="#91b3bc" stroke-width="8.0" stroke-linejoin="round" stroke-linecap="butt" d="m318.78714 974.95294l46.880157 -140.59601" fill-rule="evenodd"/><path fill="#000000" fill-opacity="0.0" d="m553.1323 646.8696l-187.47617 187.4762" fill-rule="evenodd"/><path stroke="#91b3bc" stroke-width="8.0" stroke-linejoin="round" stroke-linecap="butt" d="m553.1323 646.8696l-187.47617 187.4762" fill-rule="evenodd"/><path fill="#000000" fill-opacity="0.0" d="m318.78714 881.21484l46.85791 -46.85791" fill-rule="evenodd"/><path stroke="#91b3bc" stroke-width="8.0" stroke-linejoin="round" stroke-linecap="butt" d="m318.78714 881.21484l46.85791 -46.85791" fill-rule="evenodd"/><path fill="#000000" fill-opacity="0.0" d="m225.04906 318.78595l140.596 46.880157" fill-rule="evenodd"/><path stroke="#91b3bc" stroke-width="8.0" stroke-linejoin="round" stroke-linecap="butt" d="m225.04906 318.78595l140.596 46.880157" fill-rule="evenodd"/><path fill="#000000" fill-opacity="0.0" d="m318.78714 225.04787l46.880157 140.59596" fill-rule="evenodd"/><path stroke="#91b3bc" stroke-width="8.0" stroke-linejoin="round" stroke-linecap="butt" d="m318.78714 225.04787l46.880157 140.59596" fill-rule="evenodd"/><path fill="#000000" fill-opacity="0.0" d="m553.1323 553.1311l-187.47617 -187.47614" fill-rule="evenodd"/><path stroke="#91b3bc" stroke-width="8.0" stroke-linejoin="round" stroke-linecap="butt" d="m553.1323 553.1311l-187.47617 -187.47614" fill-rule="evenodd"/><path fill="#000000" fill-opacity="0.0" d="m318.78714 318.78595l46.85791 46.85788" fill-rule="evenodd"/><path stroke="#91b3bc" stroke-width="8.0" stroke-linejoin="round" stroke-linecap="butt" d="m318.78714 318.78595l46.85791 46.85788" fill-rule="evenodd"/><path fill="#000000" fill-opacity="0.0" d="m716.03674 145.90599l10.5841675 147.826" fill-rule="evenodd"/><path stroke="#91b3bc" stroke-width="8.0" stroke-linejoin="round" stroke-linecap="butt" d="m716.03674 145.90599l10.5841675 147.826" fill-rule="evenodd"/><path fill="#000000" fill-opacity="0.0" d="m838.5418 196.55981l-111.891846 97.184204" fill-rule="evenodd"/><path stroke="#91b3bc" stroke-width="8.0" stroke-linejoin="round" stroke-linecap="butt" d="m838.5418 196.55981l-111.891846 97.184204" fill-rule="evenodd"/><path fill="#000000" fill-opacity="0.0" d="m625.3278 538.7482l101.30762 -245.01022" fill-rule="evenodd"/><path stroke="#91b3bc" stroke-width="8.0" stroke-linejoin="round" stroke-linecap="butt" d="m625.3278 538.7482l101.30762 -245.01022" fill-rule="evenodd"/><path fill="#000000" fill-opacity="0.0" d="m751.96234 232.48546l-25.320862 61.23799" fill-rule="evenodd"/><path stroke="#91b3bc" stroke-width="8.0" stroke-linejoin="round" stroke-linecap="butt" d="m751.96234 232.48546l-25.320862 61.23799" fill-rule="evenodd"/><path fill="#000000" fill-opacity="0.0" d="m361.45996 1003.4417l111.891815 -97.184204" fill-rule="evenodd"/><path stroke="#91b3bc" stroke-width="8.0" stroke-linejoin="round" stroke-linecap="butt" d="m361.45996 1003.4417l111.891815 -97.184204" fill-rule="evenodd"/><path fill="#000000" fill-opacity="0.0" d="m483.96506 1054.0955l-10.5841675 -147.82593" fill-rule="evenodd"/><path stroke="#91b3bc" stroke-width="8.0" stroke-linejoin="round" stroke-linecap="butt" d="m483.96506 1054.0955l-10.5841675 -147.82593" fill-rule="evenodd"/><path fill="#000000" fill-opacity="0.0" d="m574.67395 661.2533l-101.30762 245.0102" fill-rule="evenodd"/><path stroke="#91b3bc" stroke-width="8.0" stroke-linejoin="round" stroke-linecap="butt" d="m574.67395 661.2533l-101.30762 245.0102" fill-rule="evenodd"/><path fill="#000000" fill-opacity="0.0" d="m448.0394 967.51605l25.320892 -61.237976" fill-rule="evenodd"/><path stroke="#91b3bc" stroke-width="8.0" stroke-linejoin="round" stroke-linecap="butt" d="m448.0394 967.51605l25.320892 -61.237976" fill-rule="evenodd"/><path fill="#000000" fill-opacity="0.0" d="m145.90613 483.96494l147.82599 -10.584198" fill-rule="evenodd"/><path stroke="#91b3bc" stroke-width="8.0" stroke-linejoin="round" stroke-linecap="butt" d="m145.90613 483.96494l147.82599 -10.584198" fill-rule="evenodd"/><path fill="#000000" fill-opacity="0.0" d="m196.55995 361.4598l97.18419 111.891846" fill-rule="evenodd"/><path stroke="#91b3bc" stroke-width="8.0" stroke-linejoin="round" stroke-linecap="butt" d="m196.55995 361.4598l97.18419 111.891846" fill-rule="evenodd"/><path fill="#000000" fill-opacity="0.0" d="m538.74835 574.6738l-245.01022 -101.30765" fill-rule="evenodd"/><path stroke="#91b3bc" stroke-width="8.0" stroke-linejoin="round" stroke-linecap="butt" d="m538.74835 574.6738l-245.01022 -101.30765" fill-rule="evenodd"/><path fill="#000000" fill-opacity="0.0" d="m232.48558 448.03928l61.23799 25.320892" fill-rule="evenodd"/><path stroke="#91b3bc" stroke-width="8.0" stroke-linejoin="round" stroke-linecap="butt" d="m232.48558 448.03928l61.23799 25.320892" fill-rule="evenodd"/><path fill="#000000" fill-opacity="0.0" d="m1054.0956 716.03656l-147.82593 10.5842285" fill-rule="evenodd"/><path stroke="#91b3bc" stroke-width="8.0" stroke-linejoin="round" stroke-linecap="butt" d="m1054.0956 716.03656l-147.82593 10.5842285" fill-rule="evenodd"/><path fill="#000000" fill-opacity="0.0" d="m1003.44183 838.5417l-97.184204 -111.891846" fill-rule="evenodd"/><path stroke="#91b3bc" stroke-width="8.0" stroke-linejoin="round" stroke-linecap="butt" d="m1003.44183 838.5417l-97.184204 -111.891846" fill-rule="evenodd"/><path fill="#000000" fill-opacity="0.0" d="m661.2534 625.32764l245.0102 101.30768" fill-rule="evenodd"/><path stroke="#91b3bc" stroke-width="8.0" stroke-linejoin="round" stroke-linecap="butt" d="m661.2534 625.32764l245.0102 101.30768" fill-rule="evenodd"/><path fill="#000000" fill-opacity="0.0" d="m967.5162 751.9622l-61.237976 -25.320862" fill-rule="evenodd"/><path stroke="#91b3bc" stroke-width="8.0" stroke-linejoin="round" stroke-linecap="butt" d="m967.5162 751.9622l-61.237976 -25.320862" fill-rule="evenodd"/><path fill="#000000" fill-opacity="0.0" d="m839.0431 1003.13965l-112.01184 -97.0437" fill-rule="evenodd"/><path stroke="#91b3bc" stroke-width="8.0" stroke-linejoin="round" stroke-linecap="butt" d="m839.0431 1003.13965l-112.01184 -97.0437" fill-rule="evenodd"/><path fill="#000000" fill-opacity="0.0" d="m716.6024 1053.9457l10.399719 -147.83765" fill-rule="evenodd"/><path stroke="#91b3bc" stroke-width="8.0" stroke-linejoin="round" stroke-linecap="butt" d="m716.6024 1053.9457l10.399719 -147.83765" fill-rule="evenodd"/><path fill="#000000" fill-opacity="0.0" d="m625.4046 661.22064l101.61212 244.88135" fill-rule="evenodd"/><path stroke="#91b3bc" stroke-width="8.0" stroke-linejoin="round" stroke-linecap="butt" d="m625.4046 661.22064l101.61212 244.88135" fill-rule="evenodd"/><path fill="#000000" fill-opacity="0.0" d="m752.41974 967.3223l-25.396973 -61.20581" fill-rule="evenodd"/><path stroke="#91b3bc" stroke-width="8.0" stroke-linejoin="round" stroke-linecap="butt" d="m752.41974 967.3223l-25.396973 -61.20581" fill-rule="evenodd"/><path fill="#000000" fill-opacity="0.0" d="m1003.1398 360.95856l-97.0437 112.01184" fill-rule="evenodd"/><path stroke="#91b3bc" stroke-width="8.0" stroke-linejoin="round" stroke-linecap="butt" d="m1003.1398 360.95856l-97.0437 112.01184" fill-rule="evenodd"/><path fill="#000000" fill-opacity="0.0" d="m1053.9458 483.39923l-147.83765 -10.39975" fill-rule="evenodd"/><path stroke="#91b3bc" stroke-width="8.0" stroke-linejoin="round" stroke-linecap="butt" d="m1053.9458 483.39923l-147.83765 -10.39975" fill-rule="evenodd"/><path fill="#000000" fill-opacity="0.0" d="m661.22076 574.597l244.88135 -101.61206" fill-rule="evenodd"/><path stroke="#91b3bc" stroke-width="8.0" stroke-linejoin="round" stroke-linecap="butt" d="m661.22076 574.597l244.88135 -101.61206" fill-rule="evenodd"/><path fill="#000000" fill-opacity="0.0" d="m967.32245 447.5819l-61.20581 25.396973" fill-rule="evenodd"/><path stroke="#91b3bc" stroke-width="8.0" stroke-linejoin="round" stroke-linecap="butt" d="m967.32245 447.5819l-61.20581 25.396973" fill-rule="evenodd"/><path fill="#000000" fill-opacity="0.0" d="m146.05582 716.60095l147.83765 10.399719" fill-rule="evenodd"/><path stroke="#91b3bc" stroke-width="8.0" stroke-linejoin="round" stroke-linecap="butt" d="m146.05582 716.60095l147.83765 10.399719" fill-rule="evenodd"/><path fill="#000000" fill-opacity="0.0" d="m196.86185 839.0416l97.0437 -112.01184" fill-rule="evenodd"/><path stroke="#91b3bc" stroke-width="8.0" stroke-linejoin="round" stroke-linecap="butt" d="m196.86185 839.0416l97.0437 -112.01184" fill-rule="evenodd"/><path fill="#000000" fill-opacity="0.0" d="m538.7809 625.40314l-244.88138 101.61206" fill-rule="evenodd"/><path stroke="#91b3bc" stroke-width="8.0" stroke-linejoin="round" stroke-linecap="butt" d="m538.7809 625.40314l-244.88138 101.61206" fill-rule="evenodd"/><path fill="#000000" fill-opacity="0.0" d="m232.67917 752.4183l61.20578 -25.397034" fill-rule="evenodd"/><path stroke="#91b3bc" stroke-width="8.0" stroke-linejoin="round" stroke-linecap="butt" d="m232.67917 752.4183l61.20578 -25.397034" fill-rule="evenodd"/><path fill="#000000" fill-opacity="0.0" d="m360.9599 196.86037l112.01184 97.043686" fill-rule="evenodd"/><path stroke="#91b3bc" stroke-width="8.0" stroke-linejoin="round" stroke-linecap="butt" d="m360.9599 196.86037l112.01184 97.043686" fill-rule="evenodd"/><path fill="#000000" fill-opacity="0.0" d="m483.40057 146.05434l-10.39975 147.83766" fill-rule="evenodd"/><path stroke="#91b3bc" stroke-width="8.0" stroke-linejoin="round" stroke-linecap="butt" d="m483.40057 146.05434l-10.39975 147.83766" fill-rule="evenodd"/><path fill="#000000" fill-opacity="0.0" d="m574.5983 538.77936l-101.61206 -244.88132" fill-rule="evenodd"/><path stroke="#91b3bc" stroke-width="8.0" stroke-linejoin="round" stroke-linecap="butt" d="m574.5983 538.77936l-101.61206 -244.88132" fill-rule="evenodd"/><path fill="#000000" fill-opacity="0.0" d="m447.58325 232.67769l25.396973 61.205795" fill-rule="evenodd"/><path stroke="#91b3bc" stroke-width="8.0" stroke-linejoin="round" stroke-linecap="butt" d="m447.58325 232.67769l25.396973 61.205795" fill-rule="evenodd"/><path fill="#000000" fill-opacity="0.0" d="m600.0 666.2848l0 397.7008" fill-rule="evenodd"/><path stroke="#91b3bc" stroke-width="24.0" stroke-linejoin="round" stroke-linecap="butt" d="m600.0 666.2848l0 397.7008" fill-rule="evenodd"/></g></svg>