<svg version="1.1" viewBox="0.0 0.0 1200.0 1200.0" fill="none" stroke="none" stroke-linecap="square" stroke-miterlimit="10" xmlns:xlink="http://www.w3.org/1999/xlink" xmlns="http://www.w3.org/2000/svg"><clipPath id="p.0"><path d="m0 0l1200.0 0l0 1200.0l-1200.0 0l0 -1200.0z" clip-rule="nonzero"/></clipPath><g clip-path="url(#p.0)"><path fill="#000000" fill-opacity="0.0" d="m0 0l1200.0 0l0 1200.0l-1200.0 0z" fill-rule="evenodd"/><path fill="#000000" fill-opacity="0.0" d="m533.71783 136.01706l66.299255 132.56693" fill-rule="evenodd"/><path stroke="#91b3bc" stroke-width="8.0" stroke-linejoin="round" stroke-linecap="butt" d="m533.71783 136.01706l66.299255 132.56693" fill-rule="evenodd"/><path fill="#000000" fill-opacity="0.0" d="m666.2848 136.01706l-66.2677 132.56693" fill-rule="evenodd"/><path stroke="#91b3bc" stroke-width="8.0" stroke-linejoin="round" stroke-linecap="butt" d="m666.2848 136.01706l-66.2677 132.56693" fill-rule="evenodd"/><path fill="#000000" fill-opacity="0.0" d="m600.00134 533.71783l0 -265.13385" fill-rule="evenodd"/><path stroke="#91b3bc" stroke-width="8.0" stroke-linejoin="round" stroke-linecap="butt" d="m600.00134 533.71783l0 -265.13385" fill-rule="evenodd"/><path fill="#000000" fill-opacity="0.0" d="m600.0026 136.01837l0 132.56693" fill-rule="evenodd"/><path stroke="#91b3bc" stroke-width="8.0" stroke-linejoin="round" stroke-linecap="butt" d="m600.0026 136.01837l0 132.56693" fill-rule="evenodd"/><path fill="#000000" fill-opacity="0.0" d="m600.0 666.2848l0 397.7008" fill-rule="evenodd"/><path stroke="#91b3bc" stroke-width="24.0" stroke-linejoin="round" stroke-linecap="butt" d="m600.0 666.2848l0 397.7008" fill-rule="evenodd"/><path fill="#000000" fill-opacity="0.0" d="m136.01181 666.28217l132.56693 -66.299255" fill-rule="evenodd"/><path stroke="#91b3bc" stroke-width="8.0" stroke-linejoin="round" stroke-linecap="butt" d="m136.01181 666.28217l132.56693 -66.299255" fill-rule="evenodd"/><path fill="#000000" fill-opacity="0.0" d="m136.01181 533.7152l132.56693 66.2677" fill-rule="evenodd"/><path stroke="#91b3bc" stroke-width="8.0" stroke-linejoin="round" stroke-linecap="butt" d="m136.01181 533.7152l132.56693 66.2677" fill-rule="evenodd"/><path fill="#000000" fill-opacity="0.0" d="m533.7126 599.99866l-265.13385 0" fill-rule="evenodd"/><path stroke="#91b3bc" stroke-width="8.0" stroke-linejoin="round" stroke-linecap="butt" d="m533.7126 599.99866l-265.13385 0" fill-rule="evenodd"/><path fill="#000000" fill-opacity="0.0" d="m136.01312 599.9974l132.56693 0" fill-rule="evenodd"/><path stroke="#91b3bc" stroke-width="8.0" stroke-linejoin="round" stroke-linecap="butt" d="m136.01312 599.9974l132.56693 0" fill-rule="evenodd"/><path fill="#000000" fill-opacity="0.0" d="m1063.9856 533.71783l-132.56696 66.299255" fill-rule="evenodd"/><path stroke="#91b3bc" stroke-width="8.0" stroke-linejoin="round" stroke-linecap="butt" d="m1063.9856 533.71783l-132.56696 66.299255" fill-rule="evenodd"/><path fill="#000000" fill-opacity="0.0" d="m1063.9856 666.2848l-132.56696 -66.2677" fill-rule="evenodd"/><path stroke="#91b3bc" stroke-width="8.0" stroke-linejoin="round" stroke-linecap="butt" d="m1063.9856 666.2848l-132.56696 -66.2677" fill-rule="evenodd"/><path fill="#000000" fill-opacity="0.0" d="m666.2848 600.00134l265.13385 0" fill-rule="evenodd"/><path stroke="#91b3bc" stroke-width="8.0" stroke-linejoin="round" stroke-linecap="butt" d="m666.2848 600.00134l265.13385 0" fill-rule="evenodd"/><path fill="#000000" fill-opacity="0.0" d="m1063.9843 600.0026l-132.56696 0" fill-rule="evenodd"/><path stroke="#91b3bc" stroke-width="8.0" stroke-linejoin="round" stroke-linecap="butt" d="m1063.9843 600.0026l-132.56696 0" fill-rule="evenodd"/><path fill="#000000" fill-opacity="0.0" d="m881.2153 225.04901l-46.85791 140.61826" fill-rule="evenodd"/><path stroke="#91b3bc" stroke-width="8.0" stroke-linejoin="round" stroke-linecap="butt" d="m881.2153 225.04901l-46.85791 140.61826" fill-rule="evenodd"/><path fill="#000000" fill-opacity="0.0" d="m974.95337 318.78708l-140.59601 46.880188" fill-rule="evenodd"/><path stroke="#91b3bc" stroke-width="8.0" stroke-linejoin="round" stroke-linecap="butt" d="m974.95337 318.78708l-140.59601 46.880188" fill-rule="evenodd"/><path fill="#000000" fill-opacity="0.0" d="m646.8701 553.13226l187.47614 -187.47614" fill-rule="evenodd"/><path stroke="#91b3bc" stroke-width="8.0" stroke-linejoin="round" stroke-linecap="butt" d="m646.8701 553.13226l187.47614 -187.47614" fill-rule="evenodd"/><path fill="#000000" fill-opacity="0.0" d="m928.0843 271.9199l-93.73804 93.7381" fill-rule="evenodd"/><path stroke="#91b3bc" stroke-width="8.0" stroke-linejoin="round" stroke-linecap="butt" d="m928.0843 271.9199l-93.73804 93.7381" fill-rule="evenodd"/><path fill="#000000" fill-opacity="0.0" d="m318.78638 974.9514l46.85791 -140.61823" fill-rule="evenodd"/><path stroke="#91b3bc" stroke-width="8.0" stroke-linejoin="round" stroke-linecap="butt" d="m318.78638 974.9514l46.85791 -140.61823" fill-rule="evenodd"/><path fill="#000000" fill-opacity="0.0" d="m225.0483 881.2134l140.596 -46.880188" fill-rule="evenodd"/><path stroke="#91b3bc" stroke-width="8.0" stroke-linejoin="round" stroke-linecap="butt" d="m225.0483 881.2134l140.596 -46.880188" fill-rule="evenodd"/><path fill="#000000" fill-opacity="0.0" d="m553.1316 646.86816l-187.47617 187.47614" fill-rule="evenodd"/><path stroke="#91b3bc" stroke-width="8.0" stroke-linejoin="round" stroke-linecap="butt" d="m553.1316 646.86816l-187.47617 187.47614" fill-rule="evenodd"/><path fill="#000000" fill-opacity="0.0" d="m271.91733 928.08057l93.7381 -93.7381" fill-rule="evenodd"/><path stroke="#91b3bc" stroke-width="8.0" stroke-linejoin="round" stroke-linecap="butt" d="m271.91733 928.08057l93.7381 -93.7381" fill-rule="evenodd"/><path fill="#000000" fill-opacity="0.0" d="m225.0483 318.78708l140.61824 46.85791" fill-rule="evenodd"/><path stroke="#91b3bc" stroke-width="8.0" stroke-linejoin="round" stroke-linecap="butt" d="m225.0483 318.78708l140.61824 46.85791" fill-rule="evenodd"/><path fill="#000000" fill-opacity="0.0" d="m318.78638 225.04901l46.880157 140.59598" fill-rule="evenodd"/><path stroke="#91b3bc" stroke-width="8.0" stroke-linejoin="round" stroke-linecap="butt" d="m318.78638 225.04901l46.880157 140.59598" fill-rule="evenodd"/><path fill="#000000" fill-opacity="0.0" d="m553.1316 553.13226l-187.47617 -187.47614" fill-rule="evenodd"/><path stroke="#91b3bc" stroke-width="8.0" stroke-linejoin="round" stroke-linecap="butt" d="m553.1316 553.13226l-187.47617 -187.47614" fill-rule="evenodd"/><path fill="#000000" fill-opacity="0.0" d="m271.9192 271.91803l93.73807 93.7381" fill-rule="evenodd"/><path stroke="#91b3bc" stroke-width="8.0" stroke-linejoin="round" stroke-linecap="butt" d="m271.9192 271.91803l93.73807 93.7381" fill-rule="evenodd"/><path fill="#000000" fill-opacity="0.0" d="m974.95337 881.2134l-140.61829 -46.85791" fill-rule="evenodd"/><path stroke="#91b3bc" stroke-width="8.0" stroke-linejoin="round" stroke-linecap="butt" d="m974.95337 881.2134l-140.61829 -46.85791" fill-rule="evenodd"/><path fill="#000000" fill-opacity="0.0" d="m881.2153 974.9514l-46.880188 -140.59595" fill-rule="evenodd"/><path stroke="#91b3bc" stroke-width="8.0" stroke-linejoin="round" stroke-linecap="butt" d="m881.2153 974.9514l-46.880188 -140.59595" fill-rule="evenodd"/><path fill="#000000" fill-opacity="0.0" d="m646.8701 646.86816l187.47614 187.47614" fill-rule="evenodd"/><path stroke="#91b3bc" stroke-width="8.0" stroke-linejoin="round" stroke-linecap="butt" d="m646.8701 646.86816l187.47614 187.47614" fill-rule="evenodd"/><path fill="#000000" fill-opacity="0.0" d="m928.08246 928.0824l-93.7381 -93.7381" fill-rule="evenodd"/><path stroke="#91b3bc" stroke-width="8.0" stroke-linejoin="round" stroke-linecap="butt" d="m928.08246 928.0824l-93.7381 -93.7381" fill-rule="evenodd"/><path fill="#000000" fill-opacity="0.0" d="m1003.14166 360.95963l-97.03162 112.040924" fill-rule="evenodd"/><path stroke="#91b3bc" stroke-width="8.0" stroke-linejoin="round" stroke-linecap="butt" d="m1003.14166 360.95963l-97.03162 112.040924" fill-rule="evenodd"/><path fill="#000000" fill-opacity="0.0" d="m1053.9478 483.4003l-147.8377 -10.39975" fill-rule="evenodd"/><path stroke="#91b3bc" stroke-width="8.0" stroke-linejoin="round" stroke-linecap="butt" d="m1053.9478 483.4003l-147.8377 -10.39975" fill-rule="evenodd"/><path fill="#000000" fill-opacity="0.0" d="m661.22266 574.5981l244.88135 -101.61209" fill-rule="evenodd"/><path stroke="#91b3bc" stroke-width="8.0" stroke-linejoin="round" stroke-linecap="butt" d="m661.22266 574.5981l244.88135 -101.61209" fill-rule="evenodd"/><path fill="#000000" fill-opacity="0.0" d="m1028.544 422.18167l-122.44061 50.80603" fill-rule="evenodd"/><path stroke="#91b3bc" stroke-width="8.0" stroke-linejoin="round" stroke-linecap="butt" d="m1028.544 422.18167l-122.44061 50.80603" fill-rule="evenodd"/><path fill="#000000" fill-opacity="0.0" d="m196.8634 839.0404l97.03162 -112.040955" fill-rule="evenodd"/><path stroke="#91b3bc" stroke-width="8.0" stroke-linejoin="round" stroke-linecap="butt" d="m196.8634 839.0404l97.03162 -112.040955" fill-rule="evenodd"/><path fill="#000000" fill-opacity="0.0" d="m146.05737 716.59973l147.83765 10.399719" fill-rule="evenodd"/><path stroke="#91b3bc" stroke-width="8.0" stroke-linejoin="round" stroke-linecap="butt" d="m146.05737 716.59973l147.83765 10.399719" fill-rule="evenodd"/><path fill="#000000" fill-opacity="0.0" d="m538.7824 625.4019l-244.88135 101.61206" fill-rule="evenodd"/><path stroke="#91b3bc" stroke-width="8.0" stroke-linejoin="round" stroke-linecap="butt" d="m538.7824 625.4019l-244.88135 101.61206" fill-rule="evenodd"/><path fill="#000000" fill-opacity="0.0" d="m171.46109 777.8183l122.440674 -50.80603" fill-rule="evenodd"/><path stroke="#91b3bc" stroke-width="8.0" stroke-linejoin="round" stroke-linecap="butt" d="m171.46109 777.8183l122.440674 -50.80603" fill-rule="evenodd"/><path fill="#000000" fill-opacity="0.0" d="m360.96045 196.86157l112.040924 97.03162" fill-rule="evenodd"/><path stroke="#91b3bc" stroke-width="8.0" stroke-linejoin="round" stroke-linecap="butt" d="m360.96045 196.86157l112.040924 97.03162" fill-rule="evenodd"/><path fill="#000000" fill-opacity="0.0" d="m483.40112 146.05554l-10.39975 147.83765" fill-rule="evenodd"/><path stroke="#91b3bc" stroke-width="8.0" stroke-linejoin="round" stroke-linecap="butt" d="m483.40112 146.05554l-10.39975 147.83765" fill-rule="evenodd"/><path fill="#000000" fill-opacity="0.0" d="m574.5989 538.7806l-101.61206 -244.88135" fill-rule="evenodd"/><path stroke="#91b3bc" stroke-width="8.0" stroke-linejoin="round" stroke-linecap="butt" d="m574.5989 538.7806l-101.61206 -244.88135" fill-rule="evenodd"/><path fill="#000000" fill-opacity="0.0" d="m422.1825 171.45926l50.80603 122.440674" fill-rule="evenodd"/><path stroke="#91b3bc" stroke-width="8.0" stroke-linejoin="round" stroke-linecap="butt" d="m422.1825 171.45926l50.80603 122.440674" fill-rule="evenodd"/><path fill="#000000" fill-opacity="0.0" d="m839.0446 1003.1384l-112.04089 -97.03162" fill-rule="evenodd"/><path stroke="#91b3bc" stroke-width="8.0" stroke-linejoin="round" stroke-linecap="butt" d="m839.0446 1003.1384l-112.04089 -97.03162" fill-rule="evenodd"/><path fill="#000000" fill-opacity="0.0" d="m716.60394 1053.9445l10.39978 -147.83765" fill-rule="evenodd"/><path stroke="#91b3bc" stroke-width="8.0" stroke-linejoin="round" stroke-linecap="butt" d="m716.60394 1053.9445l10.39978 -147.83765" fill-rule="evenodd"/><path fill="#000000" fill-opacity="0.0" d="m625.4062 661.2194l101.61206 244.88135" fill-rule="evenodd"/><path stroke="#91b3bc" stroke-width="8.0" stroke-linejoin="round" stroke-linecap="butt" d="m625.4062 661.2194l101.61206 244.88135" fill-rule="evenodd"/><path fill="#000000" fill-opacity="0.0" d="m777.8226 1028.5408l-50.80603 -122.440735" fill-rule="evenodd"/><path stroke="#91b3bc" stroke-width="8.0" stroke-linejoin="round" stroke-linecap="butt" d="m777.8226 1028.5408l-50.80603 -122.440735" fill-rule="evenodd"/><path fill="#000000" fill-opacity="0.0" d="m1054.0662 716.0491l-147.83093 10.606934" fill-rule="evenodd"/><path stroke="#91b3bc" stroke-width="8.0" stroke-linejoin="round" stroke-linecap="butt" d="m1054.0662 716.0491l-147.83093 10.606934" fill-rule="evenodd"/><path fill="#000000" fill-opacity="0.0" d="m1003.41016 838.54596l-97.17493 -111.88995" fill-rule="evenodd"/><path stroke="#91b3bc" stroke-width="8.0" stroke-linejoin="round" stroke-linecap="butt" d="m1003.41016 838.54596l-97.17493 -111.88995" fill-rule="evenodd"/><path fill="#000000" fill-opacity="0.0" d="m661.24744 625.32935l244.99384 101.31213" fill-rule="evenodd"/><path stroke="#91b3bc" stroke-width="8.0" stroke-linejoin="round" stroke-linecap="butt" d="m661.24744 625.32935l244.99384 101.31213" fill-rule="evenodd"/><path fill="#000000" fill-opacity="0.0" d="m1028.7365 777.2982l-122.49689 -50.656067" fill-rule="evenodd"/><path stroke="#91b3bc" stroke-width="8.0" stroke-linejoin="round" stroke-linecap="butt" d="m1028.7365 777.2982l-122.49689 -50.656067" fill-rule="evenodd"/><path fill="#000000" fill-opacity="0.0" d="m145.93355 483.95233l147.83098 -10.606964" fill-rule="evenodd"/><path stroke="#91b3bc" stroke-width="8.0" stroke-linejoin="round" stroke-linecap="butt" d="m145.93355 483.95233l147.83098 -10.606964" fill-rule="evenodd"/><path fill="#000000" fill-opacity="0.0" d="m196.58961 361.4554l97.17491 111.88995" fill-rule="evenodd"/><path stroke="#91b3bc" stroke-width="8.0" stroke-linejoin="round" stroke-linecap="butt" d="m196.58961 361.4554l97.17491 111.88995" fill-rule="evenodd"/><path fill="#000000" fill-opacity="0.0" d="m538.7523 574.67206l-244.99384 -101.31213" fill-rule="evenodd"/><path stroke="#91b3bc" stroke-width="8.0" stroke-linejoin="round" stroke-linecap="butt" d="m538.7523 574.67206l-244.99384 -101.31213" fill-rule="evenodd"/><path fill="#000000" fill-opacity="0.0" d="m171.26329 422.70316l122.49693 50.656067" fill-rule="evenodd"/><path stroke="#91b3bc" stroke-width="8.0" stroke-linejoin="round" stroke-linecap="butt" d="m171.26329 422.70316l122.49693 50.656067" fill-rule="evenodd"/><path fill="#000000" fill-opacity="0.0" d="m716.0465 145.93365l10.606995 147.83096" fill-rule="evenodd"/><path stroke="#91b3bc" stroke-width="8.0" stroke-linejoin="round" stroke-linecap="butt" d="m716.0465 145.93365l10.606995 147.83096" fill-rule="evenodd"/><path fill="#000000" fill-opacity="0.0" d="m838.54346 196.58972l-111.88995 97.1749" fill-rule="evenodd"/><path stroke="#91b3bc" stroke-width="8.0" stroke-linejoin="round" stroke-linecap="butt" d="m838.54346 196.58972l-111.88995 97.1749" fill-rule="evenodd"/><path fill="#000000" fill-opacity="0.0" d="m625.3268 538.75244l101.31213 -244.99384" fill-rule="evenodd"/><path stroke="#91b3bc" stroke-width="8.0" stroke-linejoin="round" stroke-linecap="butt" d="m625.3268 538.75244l101.31213 -244.99384" fill-rule="evenodd"/><path fill="#000000" fill-opacity="0.0" d="m777.2957 171.2634l-50.656067 122.49692" fill-rule="evenodd"/><path stroke="#91b3bc" stroke-width="8.0" stroke-linejoin="round" stroke-linecap="butt" d="m777.2957 171.2634l-50.656067 122.49692" fill-rule="evenodd"/><path fill="#000000" fill-opacity="0.0" d="m483.95322 1054.0677l-10.606934 -147.831" fill-rule="evenodd"/><path stroke="#91b3bc" stroke-width="8.0" stroke-linejoin="round" stroke-linecap="butt" d="m483.95322 1054.0677l-10.606934 -147.831" fill-rule="evenodd"/><path fill="#000000" fill-opacity="0.0" d="m361.4563 1003.4117l111.889984 -97.17493" fill-rule="evenodd"/><path stroke="#91b3bc" stroke-width="8.0" stroke-linejoin="round" stroke-linecap="butt" d="m361.4563 1003.4117l111.889984 -97.17493" fill-rule="evenodd"/><path fill="#000000" fill-opacity="0.0" d="m574.6729 661.24896l-101.3121 244.99384" fill-rule="evenodd"/><path stroke="#91b3bc" stroke-width="8.0" stroke-linejoin="round" stroke-linecap="butt" d="m574.6729 661.24896l-101.3121 244.99384" fill-rule="evenodd"/><path fill="#000000" fill-opacity="0.0" d="m422.70407 1028.738l50.656036 -122.49695" fill-rule="evenodd"/><path stroke="#91b3bc" stroke-width="8.0" stroke-linejoin="round" stroke-linecap="butt" d="m422.70407 1028.738l50.656036 -122.49695" fill-rule="evenodd"/></g></svg>