<svg version="1.1" xmlns="http://www.w3.org/2000/svg" xmlns:xlink="http://www.w3.org/1999/xlink" width="1399.5996704101562" height="495"><defs/><g><g transform="translate(2,-78) scale(1,1)"><rect fill="#C0C0C0" stroke="none" x="599" y="95" width="87.83986816406252" height="15" opacity="0.2"/></g><g transform="translate(2,-78) scale(1,1)"><rect fill="#C0C0C0" stroke="none" x="599" y="109" width="219.59967041015625" height="53" opacity="0.2"/></g><g transform="translate(2,-78) scale(1,1)"><rect fill="#d8ffeb" stroke="none" x="592" y="103" width="219.59967041015625" height="52"/></g><g transform="translate(2,-78) scale(1,1)"><path fill="none" stroke="#000000" d="M 592 103 L 811.5996704101562 103 L 811.5996704101562 155 L 592 155 L 592 103 Z Z" stroke-miterlimit="10"/></g><g transform="translate(2,-78) scale(1,1)"><rect fill="#d8ffeb" stroke="none" x="592" y="88" width="87.83986816406252" height="15"/></g><g transform="translate(2,-78) scale(1,1)"><path fill="none" stroke="#000000" d="M 592 88 L 679.8398681640625 88 L 679.8398681640625 103 L 592 103 L 592 88 Z Z" stroke-miterlimit="10"/></g><g transform="translate(2,-78) scale(1,1)"><rect fill="#d8ffeb" stroke="none" x="592" y="102" width="219.59967041015625" height="53"/></g><g transform="translate(2,-78) scale(1,1)"><path fill="none" stroke="#000000" d="M 592 102 L 811.5996704101562 102 L 811.5996704101562 155 L 592 155 L 592 102 Z Z" stroke-miterlimit="10"/></g><g transform="translate(2,-78) scale(1,1)"><path fill="none" stroke="#000000" d="M 671.8398681640625 91 L 671.8398681640625 95" stroke-miterlimit="10"/></g><g transform="translate(2,-78) scale(1,1)"><path fill="none" stroke="#000000" d="M 668.8398681640625 99 L 668.8398681640625 95 L 674.8398681640625 95" stroke-miterlimit="10"/></g><g transform="translate(2,-78) scale(1,1)"><path fill="none" stroke="#000000" d="M 674.8398681640625 99 L 674.8398681640625 95 L 668.8398681640625 95" stroke-miterlimit="10"/></g><g transform="translate(2,-78) scale(1,1)"><g><path fill="none" stroke="none"/><text fill="#000000" stroke="none" font-family="Source Code Pro" font-size="13px" font-style="normal" font-weight="normal" text-decoration="none" x="666.6998901367188" y="120.5">«Service»</text></g></g><g transform="translate(2,-78) scale(1,1)"><g><path fill="none" stroke="none"/><text fill="#000000" stroke="none" font-family="Source Code Pro" font-size="13px" font-style="normal" font-weight="bold" text-decoration="none" x="651.0999145507812" y="135.5">ipc_mechanism</text></g></g><g transform="translate(2,-78) scale(1,1)"><g><path fill="none" stroke="none"/><text fill="#000000" stroke="none" font-family="Source Code Pro" font-size="13px" font-style="normal" font-weight="normal" text-decoration="none" x="651.0999145507812" y="150.5">(from kernel)</text></g></g><g transform="translate(2,-78) scale(1,1)"><rect fill="#C0C0C0" stroke="none" x="711" y="359" width="87.83986816406252" height="15" opacity="0.2"/></g><g transform="translate(2,-78) scale(1,1)"><rect fill="#C0C0C0" stroke="none" x="711" y="373" width="219.59967041015625" height="53" opacity="0.2"/></g><g transform="translate(2,-78) scale(1,1)"><rect fill="#a3e0ff" stroke="none" x="704" y="367" width="219.59967041015625" height="52"/></g><g transform="translate(2,-78) scale(1,1)"><path fill="none" stroke="#000000" d="M 704 367 L 923.5996704101562 367 L 923.5996704101562 419 L 704 419 L 704 367 Z Z" stroke-miterlimit="10"/></g><g transform="translate(2,-78) scale(1,1)"><rect fill="#a3e0ff" stroke="none" x="704" y="352" width="87.83986816406252" height="15"/></g><g transform="translate(2,-78) scale(1,1)"><path fill="none" stroke="#000000" d="M 704 352 L 791.8398681640625 352 L 791.8398681640625 367 L 704 367 L 704 352 Z Z" stroke-miterlimit="10"/></g><g transform="translate(2,-78) scale(1,1)"><rect fill="#a3e0ff" stroke="none" x="704" y="366" width="219.59967041015625" height="53"/></g><g transform="translate(2,-78) scale(1,1)"><path fill="none" stroke="#000000" d="M 704 366 L 923.5996704101562 366 L 923.5996704101562 419 L 704 419 L 704 366 Z Z" stroke-miterlimit="10"/></g><g transform="translate(2,-78) scale(1,1)"><g><path fill="none" stroke="none"/><text fill="#000000" stroke="none" font-family="Source Code Pro" font-size="13px" font-style="normal" font-weight="normal" text-decoration="none" x="782.5998840332031" y="384.5">«Option»</text></g></g><g transform="translate(2,-78) scale(1,1)"><g><path fill="none" stroke="none"/><text fill="#000000" stroke="none" font-family="Source Code Pro" font-size="13px" font-style="normal" font-weight="bold" text-decoration="none" x="790.3998718261719" y="399.5">socket</text></g></g><g transform="translate(2,-78) scale(1,1)"><rect fill="#C0C0C0" stroke="none" x="15" y="503" width="219.59967041015625" height="67" opacity="0.2"/></g><g transform="translate(2,-78) scale(1,1)"><rect fill="#ffebd8" stroke="none" x="8" y="496" width="219.59967041015625" height="67"/></g><g transform="translate(2,-78) scale(1,1)"><path fill="none" stroke="#000000" d="M 8 496 L 227.59967041015625 496 L 227.59967041015625 563 L 8 563 L 8 496 Z Z" stroke-miterlimit="10"/></g><g transform="translate(2,-78) scale(1,1)"><path fill="none" stroke="#000000" d="M 8 549 L 227.59967041015625 549" stroke-miterlimit="10"/></g><g transform="translate(2,-78) scale(1,1)"><g><path fill="none" stroke="none"/><text fill="#000000" stroke="none" font-family="Source Code Pro" font-size="13px" font-style="normal" font-weight="normal" text-decoration="none" x="67.09991455078125" y="513.5">«enumeration»</text></g></g><g transform="translate(2,-78) scale(1,1)"><g><path fill="none" stroke="none"/><text fill="#000000" stroke="none" font-family="Source Code Pro" font-size="13px" font-style="normal" font-weight="bold" text-decoration="none" x="98.29986572265625" y="528.5">posix</text></g></g><g transform="translate(2,-78) scale(1,1)"><g><path fill="none" stroke="none"/><text fill="#000000" stroke="none" font-family="Source Code Pro" font-size="13px" font-style="normal" font-weight="normal" text-decoration="none" x="67.09991455078125" y="543.5">(from signal)</text></g></g><g transform="translate(2,-78) scale(1,1)"><rect fill="#C0C0C0" stroke="none" x="247" y="503" width="219.59967041015625" height="67" opacity="0.2"/></g><g transform="translate(2,-78) scale(1,1)"><rect fill="#ffebd8" stroke="none" x="240" y="496" width="219.59967041015625" height="67"/></g><g transform="translate(2,-78) scale(1,1)"><path fill="none" stroke="#000000" d="M 240 496 L 459.59967041015625 496 L 459.59967041015625 563 L 240 563 L 240 496 Z Z" stroke-miterlimit="10"/></g><g transform="translate(2,-78) scale(1,1)"><path fill="none" stroke="#000000" d="M 240 549 L 459.59967041015625 549" stroke-miterlimit="10"/></g><g transform="translate(2,-78) scale(1,1)"><g><path fill="none" stroke="none"/><text fill="#000000" stroke="none" font-family="Source Code Pro" font-size="13px" font-style="normal" font-weight="normal" text-decoration="none" x="299.09991455078125" y="513.5">«enumeration»</text></g></g><g transform="translate(2,-78) scale(1,1)"><g><path fill="none" stroke="none"/><text fill="#000000" stroke="none" font-family="Source Code Pro" font-size="13px" font-style="normal" font-weight="bold" text-decoration="none" x="326.3998718261719" y="528.5">custom</text></g></g><g transform="translate(2,-78) scale(1,1)"><g><path fill="none" stroke="none"/><text fill="#000000" stroke="none" font-family="Source Code Pro" font-size="13px" font-style="normal" font-weight="normal" text-decoration="none" x="299.09991455078125" y="543.5">(from signal)</text></g></g><g transform="translate(2,-78) scale(1,1)"><rect fill="#C0C0C0" stroke="none" x="247" y="359" width="87.83986816406252" height="15" opacity="0.2"/></g><g transform="translate(2,-78) scale(1,1)"><rect fill="#C0C0C0" stroke="none" x="247" y="373" width="219.59967041015625" height="53" opacity="0.2"/></g><g transform="translate(2,-78) scale(1,1)"><rect fill="#a3e0ff" stroke="none" x="240" y="367" width="219.59967041015625" height="52"/></g><g transform="translate(2,-78) scale(1,1)"><path fill="none" stroke="#000000" d="M 240 367 L 459.59967041015625 367 L 459.59967041015625 419 L 240 419 L 240 367 Z Z" stroke-miterlimit="10"/></g><g transform="translate(2,-78) scale(1,1)"><rect fill="#a3e0ff" stroke="none" x="240" y="352" width="87.83986816406252" height="15"/></g><g transform="translate(2,-78) scale(1,1)"><path fill="none" stroke="#000000" d="M 240 352 L 327.8398681640625 352 L 327.8398681640625 367 L 240 367 L 240 352 Z Z" stroke-miterlimit="10"/></g><g transform="translate(2,-78) scale(1,1)"><rect fill="#a3e0ff" stroke="none" x="240" y="366" width="219.59967041015625" height="53"/></g><g transform="translate(2,-78) scale(1,1)"><path fill="none" stroke="#000000" d="M 240 366 L 459.59967041015625 366 L 459.59967041015625 419 L 240 419 L 240 366 Z Z" stroke-miterlimit="10"/></g><g transform="translate(2,-78) scale(1,1)"><g><path fill="none" stroke="none"/><text fill="#000000" stroke="none" font-family="Source Code Pro" font-size="13px" font-style="normal" font-weight="normal" text-decoration="none" x="318.5998840332031" y="384.5">«Option»</text></g></g><g transform="translate(2,-78) scale(1,1)"><g><path fill="none" stroke="none"/><text fill="#000000" stroke="none" font-family="Source Code Pro" font-size="13px" font-style="normal" font-weight="bold" text-decoration="none" x="271.7999572753906" y="399.5">publisher_subscriber</text></g></g><g transform="translate(2,-78) scale(1,1)"><g><path fill="none" stroke="none"/><text fill="#000000" stroke="none" font-family="Source Code Pro" font-size="13px" font-style="normal" font-weight="normal" text-decoration="none" x="302.9999084472656" y="414.5">(from async)</text></g></g><g transform="translate(2,-78) scale(1,1)"><rect fill="#C0C0C0" stroke="none" x="943" y="359" width="87.83986816406241" height="15" opacity="0.2"/></g><g transform="translate(2,-78) scale(1,1)"><rect fill="#C0C0C0" stroke="none" x="943" y="373" width="219.59967041015625" height="53" opacity="0.2"/></g><g transform="translate(2,-78) scale(1,1)"><rect fill="#a3e0ff" stroke="none" x="936" y="367" width="219.59967041015625" height="52"/></g><g transform="translate(2,-78) scale(1,1)"><path fill="none" stroke="#000000" d="M 936 367 L 1155.5996704101562 367 L 1155.5996704101562 419 L 936 419 L 936 367 Z Z" stroke-miterlimit="10"/></g><g transform="translate(2,-78) scale(1,1)"><rect fill="#a3e0ff" stroke="none" x="936" y="352" width="87.83986816406252" height="15"/></g><g transform="translate(2,-78) scale(1,1)"><path fill="none" stroke="#000000" d="M 936 352 L 1023.8398681640625 352 L 1023.8398681640625 367 L 936 367 L 936 352 Z Z" stroke-miterlimit="10"/></g><g transform="translate(2,-78) scale(1,1)"><rect fill="#a3e0ff" stroke="none" x="936" y="366" width="219.59967041015625" height="53"/></g><g transform="translate(2,-78) scale(1,1)"><path fill="none" stroke="#000000" d="M 936 366 L 1155.5996704101562 366 L 1155.5996704101562 419 L 936 419 L 936 366 Z Z" stroke-miterlimit="10"/></g><g transform="translate(2,-78) scale(1,1)"><g><path fill="none" stroke="none"/><text fill="#000000" stroke="none" font-family="Source Code Pro" font-size="13px" font-style="normal" font-weight="normal" text-decoration="none" x="991.1999206542969" y="384.5">«ModelLibrary»</text></g></g><g transform="translate(2,-78) scale(1,1)"><g><path fill="none" stroke="none"/><text fill="#000000" stroke="none" font-family="Source Code Pro" font-size="13px" font-style="normal" font-weight="bold" text-decoration="none" x="1030.1998596191406" y="399.5">pipe</text></g></g><g transform="translate(2,-78) scale(1,1)"><g><path fill="none" stroke="none"/><text fill="#000000" stroke="none" font-family="Source Code Pro" font-size="13px" font-style="normal" font-weight="normal" text-decoration="none" x="1002.89990234375" y="414.5">(from sync)</text></g></g><g transform="translate(2,-78) scale(1,1)"><rect fill="#C0C0C0" stroke="none" x="1175" y="359" width="87.83986816406241" height="15" opacity="0.2"/></g><g transform="translate(2,-78) scale(1,1)"><rect fill="#C0C0C0" stroke="none" x="1175" y="373" width="219.59967041015625" height="53" opacity="0.2"/></g><g transform="translate(2,-78) scale(1,1)"><rect fill="#a3e0ff" stroke="none" x="1168" y="367" width="219.59967041015625" height="52"/></g><g transform="translate(2,-78) scale(1,1)"><path fill="none" stroke="#000000" d="M 1168 367 L 1387.5996704101562 367 L 1387.5996704101562 419 L 1168 419 L 1168 367 Z Z" stroke-miterlimit="10"/></g><g transform="translate(2,-78) scale(1,1)"><rect fill="#a3e0ff" stroke="none" x="1168" y="352" width="87.83986816406241" height="15"/></g><g transform="translate(2,-78) scale(1,1)"><path fill="none" stroke="#000000" d="M 1168 352 L 1255.8398681640624 352 L 1255.8398681640624 367 L 1168 367 L 1168 352 Z Z" stroke-miterlimit="10"/></g><g transform="translate(2,-78) scale(1,1)"><rect fill="#a3e0ff" stroke="none" x="1168" y="366" width="219.59967041015625" height="53"/></g><g transform="translate(2,-78) scale(1,1)"><path fill="none" stroke="#000000" d="M 1168 366 L 1387.5996704101562 366 L 1387.5996704101562 419 L 1168 419 L 1168 366 Z Z" stroke-miterlimit="10"/></g><g transform="translate(2,-78) scale(1,1)"><g><path fill="none" stroke="none"/><text fill="#000000" stroke="none" font-family="Source Code Pro" font-size="13px" font-style="normal" font-weight="normal" text-decoration="none" x="1223.1999206542969" y="384.5">«ModelLibrary»</text></g></g><g transform="translate(2,-78) scale(1,1)"><g><path fill="none" stroke="none"/><text fill="#000000" stroke="none" font-family="Source Code Pro" font-size="13px" font-style="normal" font-weight="bold" text-decoration="none" x="1227.0999145507812" y="399.5">shared_memory</text></g></g><g transform="translate(2,-78) scale(1,1)"><g><path fill="none" stroke="none"/><text fill="#000000" stroke="none" font-family="Source Code Pro" font-size="13px" font-style="normal" font-weight="normal" text-decoration="none" x="1234.89990234375" y="414.5">(from sync)</text></g></g><g transform="translate(2,-78) scale(1,1)"><rect fill="#C0C0C0" stroke="none" x="943" y="503" width="87.83986816406241" height="15" opacity="0.2"/></g><g transform="translate(2,-78) scale(1,1)"><rect fill="#C0C0C0" stroke="none" x="943" y="517" width="219.59967041015625" height="53" opacity="0.2"/></g><g transform="translate(2,-78) scale(1,1)"><rect fill="#d8ffeb" stroke="none" x="936" y="511" width="219.59967041015625" height="52"/></g><g transform="translate(2,-78) scale(1,1)"><path fill="none" stroke="#000000" d="M 936 511 L 1155.5996704101562 511 L 1155.5996704101562 563 L 936 563 L 936 511 Z Z" stroke-miterlimit="10"/></g><g transform="translate(2,-78) scale(1,1)"><rect fill="#d8ffeb" stroke="none" x="936" y="496" width="87.83986816406252" height="15"/></g><g transform="translate(2,-78) scale(1,1)"><path fill="none" stroke="#000000" d="M 936 496 L 1023.8398681640625 496 L 1023.8398681640625 511 L 936 511 L 936 496 Z Z" stroke-miterlimit="10"/></g><g transform="translate(2,-78) scale(1,1)"><rect fill="#d8ffeb" stroke="none" x="936" y="510" width="219.59967041015625" height="53"/></g><g transform="translate(2,-78) scale(1,1)"><path fill="none" stroke="#000000" d="M 936 510 L 1155.5996704101562 510 L 1155.5996704101562 563 L 936 563 L 936 510 Z Z" stroke-miterlimit="10"/></g><g transform="translate(2,-78) scale(1,1)"><path fill="none" stroke="#000000" d="M 1015.8398681640625 499 L 1015.8398681640625 503" stroke-miterlimit="10"/></g><g transform="translate(2,-78) scale(1,1)"><path fill="none" stroke="#000000" d="M 1012.8398681640625 507 L 1012.8398681640625 503 L 1018.8398681640625 503" stroke-miterlimit="10"/></g><g transform="translate(2,-78) scale(1,1)"><path fill="none" stroke="#000000" d="M 1018.8398681640625 507 L 1018.8398681640625 503 L 1012.8398681640625 503" stroke-miterlimit="10"/></g><g transform="translate(2,-78) scale(1,1)"><g><path fill="none" stroke="none"/><text fill="#000000" stroke="none" font-family="Source Code Pro" font-size="13px" font-style="normal" font-weight="bold" text-decoration="none" x="1006.7998962402344" y="530.5">named_pipe</text></g></g><g transform="translate(2,-78) scale(1,1)"><g><path fill="none" stroke="none"/><text fill="#000000" stroke="none" font-family="Source Code Pro" font-size="13px" font-style="normal" font-weight="normal" text-decoration="none" x="1002.89990234375" y="545.5">(from pipe)</text></g></g><g transform="translate(2,-78) scale(1,1)"><path fill="none" stroke="#000000" d="M 1045 495 L 1045 420" stroke-miterlimit="10" stroke-dasharray="3"/></g><g transform="translate(2,-78) scale(1,1)"><path fill="none" stroke="#000000" d="M 1049.2095177560159 430.16267485762415 L 1045 420 L 1040.7904822439841 430.16267485762415" stroke-miterlimit="10"/></g><g transform="translate(2,-78) scale(1,1)"><g><path fill="none" stroke="none"/><text fill="#000000" stroke="none" font-family="Source Code Pro" font-size="13px" font-style="normal" font-weight="normal" text-decoration="none" x="983.5" y="462.5">«import»</text></g></g><g transform="translate(2,-78) scale(1,1)"><rect fill="#C0C0C0" stroke="none" x="943" y="191" width="87.83986816406241" height="15" opacity="0.2"/></g><g transform="translate(2,-78) scale(1,1)"><rect fill="#C0C0C0" stroke="none" x="943" y="205" width="219.59967041015625" height="53" opacity="0.2"/></g><g transform="translate(2,-78) scale(1,1)"><rect fill="#d8f2ff" stroke="none" x="936" y="199" width="219.59967041015625" height="52"/></g><g transform="translate(2,-78) scale(1,1)"><path fill="none" stroke="#000000" d="M 936 199 L 1155.5996704101562 199 L 1155.5996704101562 251 L 936 251 L 936 199 Z Z" stroke-miterlimit="10"/></g><g transform="translate(2,-78) scale(1,1)"><rect fill="#d8f2ff" stroke="none" x="936" y="184" width="87.83986816406252" height="15"/></g><g transform="translate(2,-78) scale(1,1)"><path fill="none" stroke="#000000" d="M 936 184 L 1023.8398681640625 184 L 1023.8398681640625 199 L 936 199 L 936 184 Z Z" stroke-miterlimit="10"/></g><g transform="translate(2,-78) scale(1,1)"><rect fill="#d8f2ff" stroke="none" x="936" y="198" width="219.59967041015625" height="53"/></g><g transform="translate(2,-78) scale(1,1)"><path fill="none" stroke="#000000" d="M 936 198 L 1155.5996704101562 198 L 1155.5996704101562 251 L 936 251 L 936 198 Z Z" stroke-miterlimit="10"/></g><g transform="translate(2,-78) scale(1,1)"><g><path fill="none" stroke="none"/><text fill="#000000" stroke="none" font-family="Source Code Pro" font-size="13px" font-style="normal" font-weight="bold" text-decoration="none" x="1030.1998596191406" y="218.5">sync</text></g></g><g transform="translate(2,-78) scale(1,1)"><path fill="none" stroke="#000000" d="M 860 351 L 997 252" stroke-miterlimit="10" stroke-dasharray="3"/></g><g transform="translate(2,-78) scale(1,1)"><path fill="none" stroke="#000000" d="M 991.2284584044255 261.3642569171586 L 997 252 L 986.2973742329732 254.54043336676497" stroke-miterlimit="10"/></g><g transform="translate(2,-78) scale(1,1)"><path fill="none" stroke="#000000" d="M 1045 351 L 1045 252" stroke-miterlimit="10" stroke-dasharray="3"/></g><g transform="translate(2,-78) scale(1,1)"><path fill="none" stroke="#000000" d="M 1049.2095177560159 262.16267485762415 L 1045 252 L 1040.7904822439841 262.16267485762415" stroke-miterlimit="10"/></g><g transform="translate(2,-78) scale(1,1)"><path fill="none" stroke="#000000" d="M 935 186 L 813 152" stroke-miterlimit="10" stroke-dasharray="3"/></g><g transform="translate(2,-78) scale(1,1)"><path fill="none" stroke="#000000" d="M 823.9196962359598 150.67326185162048 L 813 152 L 821.6595367985224 158.78324571536635" stroke-miterlimit="10"/></g><g transform="translate(2,-78) scale(1,1)"><path fill="none" stroke="#000000" d="M 1230 351 L 1093 252" stroke-miterlimit="10" stroke-dasharray="3"/></g><g transform="translate(2,-78) scale(1,1)"><path fill="none" stroke="#000000" d="M 1103.7026257670268 254.54043336676497 L 1093 252 L 1098.7715415955745 261.3642569171586" stroke-miterlimit="10"/></g><g transform="translate(2,-78) scale(1,1)"><rect fill="#C0C0C0" stroke="none" x="247" y="191" width="87.83986816406252" height="15" opacity="0.2"/></g><g transform="translate(2,-78) scale(1,1)"><rect fill="#C0C0C0" stroke="none" x="247" y="205" width="219.59967041015625" height="53" opacity="0.2"/></g><g transform="translate(2,-78) scale(1,1)"><rect fill="#d8f2ff" stroke="none" x="240" y="199" width="219.59967041015625" height="52"/></g><g transform="translate(2,-78) scale(1,1)"><path fill="none" stroke="#000000" d="M 240 199 L 459.59967041015625 199 L 459.59967041015625 251 L 240 251 L 240 199 Z Z" stroke-miterlimit="10"/></g><g transform="translate(2,-78) scale(1,1)"><rect fill="#d8f2ff" stroke="none" x="240" y="184" width="87.83986816406252" height="15"/></g><g transform="translate(2,-78) scale(1,1)"><path fill="none" stroke="#000000" d="M 240 184 L 327.8398681640625 184 L 327.8398681640625 199 L 240 199 L 240 184 Z Z" stroke-miterlimit="10"/></g><g transform="translate(2,-78) scale(1,1)"><rect fill="#d8f2ff" stroke="none" x="240" y="198" width="219.59967041015625" height="53"/></g><g transform="translate(2,-78) scale(1,1)"><path fill="none" stroke="#000000" d="M 240 198 L 459.59967041015625 198 L 459.59967041015625 251 L 240 251 L 240 198 Z Z" stroke-miterlimit="10"/></g><g transform="translate(2,-78) scale(1,1)"><g><path fill="none" stroke="none"/><text fill="#000000" stroke="none" font-family="Source Code Pro" font-size="13px" font-style="normal" font-weight="bold" text-decoration="none" x="330.29986572265625" y="218.5">async</text></g></g><g transform="translate(2,-78) scale(1,1)"><path fill="none" stroke="#000000" d="M 349 351 L 349 252" stroke-miterlimit="10" stroke-dasharray="3"/></g><g transform="translate(2,-78) scale(1,1)"><path fill="none" stroke="#000000" d="M 353.209517756016 262.16267485762415 L 349 252 L 344.790482243984 262.16267485762415" stroke-miterlimit="10"/></g><g transform="translate(2,-78) scale(1,1)"><path fill="none" stroke="#000000" d="M 461 187 L 591 151" stroke-miterlimit="10" stroke-dasharray="3"/></g><g transform="translate(2,-78) scale(1,1)"><path fill="none" stroke="#000000" d="M 582.3293573756522 157.769043985737 L 591 151 L 580.0824928986139 149.65536670754318" stroke-miterlimit="10"/></g><g transform="translate(2,-78) scale(1,1)"><rect fill="#C0C0C0" stroke="none" x="479" y="503" width="87.83986816406252" height="15" opacity="0.2"/></g><g transform="translate(2,-78) scale(1,1)"><rect fill="#C0C0C0" stroke="none" x="479" y="517" width="219.59967041015625" height="53" opacity="0.2"/></g><g transform="translate(2,-78) scale(1,1)"><rect fill="#d8ffeb" stroke="none" x="472" y="511" width="219.59967041015625" height="52"/></g><g transform="translate(2,-78) scale(1,1)"><path fill="none" stroke="#000000" d="M 472 511 L 691.5996704101562 511 L 691.5996704101562 563 L 472 563 L 472 511 Z Z" stroke-miterlimit="10"/></g><g transform="translate(2,-78) scale(1,1)"><rect fill="#d8ffeb" stroke="none" x="472" y="496" width="87.83986816406252" height="15"/></g><g transform="translate(2,-78) scale(1,1)"><path fill="none" stroke="#000000" d="M 472 496 L 559.8398681640625 496 L 559.8398681640625 511 L 472 511 L 472 496 Z Z" stroke-miterlimit="10"/></g><g transform="translate(2,-78) scale(1,1)"><rect fill="#d8ffeb" stroke="none" x="472" y="510" width="219.59967041015625" height="53"/></g><g transform="translate(2,-78) scale(1,1)"><path fill="none" stroke="#000000" d="M 472 510 L 691.5996704101562 510 L 691.5996704101562 563 L 472 563 L 472 510 Z Z" stroke-miterlimit="10"/></g><g transform="translate(2,-78) scale(1,1)"><path fill="none" stroke="#000000" d="M 551.8398681640625 499 L 551.8398681640625 503" stroke-miterlimit="10"/></g><g transform="translate(2,-78) scale(1,1)"><path fill="none" stroke="#000000" d="M 548.8398681640625 507 L 548.8398681640625 503 L 554.8398681640625 503" stroke-miterlimit="10"/></g><g transform="translate(2,-78) scale(1,1)"><path fill="none" stroke="#000000" d="M 554.8398681640625 507 L 554.8398681640625 503 L 548.8398681640625 503" stroke-miterlimit="10"/></g><g transform="translate(2,-78) scale(1,1)"><g><path fill="none" stroke="none"/><text fill="#000000" stroke="none" font-family="Source Code Pro" font-size="13px" font-style="normal" font-weight="bold" text-decoration="none" x="531.0999145507812" y="530.5">message_queue</text></g></g><g transform="translate(2,-78) scale(1,1)"><g><path fill="none" stroke="none"/><text fill="#000000" stroke="none" font-family="Source Code Pro" font-size="13px" font-style="normal" font-weight="normal" text-decoration="none" x="476.5" y="545.5">(from publisher_subscriber)</text></g></g><g transform="translate(2,-78) scale(1,1)"><path fill="none" stroke="#000000" d="M 526 495 L 405 420" stroke-miterlimit="10" stroke-dasharray="3"/></g><g transform="translate(2,-78) scale(1,1)"><path fill="none" stroke="#000000" d="M 415.8556587627004 421.7761398671856 L 405 420 L 411.4201893809299 428.9320304697753" stroke-miterlimit="10"/></g><g transform="translate(2,-78) scale(1,1)"><rect fill="#C0C0C0" stroke="none" x="15" y="359" width="87.8398681640625" height="15" opacity="0.2"/></g><g transform="translate(2,-78) scale(1,1)"><rect fill="#C0C0C0" stroke="none" x="15" y="373" width="219.59967041015625" height="53" opacity="0.2"/></g><g transform="translate(2,-78) scale(1,1)"><rect fill="#d8ffeb" stroke="none" x="8" y="367" width="219.59967041015625" height="52"/></g><g transform="translate(2,-78) scale(1,1)"><path fill="none" stroke="#000000" d="M 8 367 L 227.59967041015625 367 L 227.59967041015625 419 L 8 419 L 8 367 Z Z" stroke-miterlimit="10"/></g><g transform="translate(2,-78) scale(1,1)"><rect fill="#d8ffeb" stroke="none" x="8" y="352" width="87.8398681640625" height="15"/></g><g transform="translate(2,-78) scale(1,1)"><path fill="none" stroke="#000000" d="M 8 352 L 95.8398681640625 352 L 95.8398681640625 367 L 8 367 L 8 352 Z Z" stroke-miterlimit="10"/></g><g transform="translate(2,-78) scale(1,1)"><rect fill="#d8ffeb" stroke="none" x="8" y="366" width="219.59967041015625" height="53"/></g><g transform="translate(2,-78) scale(1,1)"><path fill="none" stroke="#000000" d="M 8 366 L 227.59967041015625 366 L 227.59967041015625 419 L 8 419 L 8 366 Z Z" stroke-miterlimit="10"/></g><g transform="translate(2,-78) scale(1,1)"><path fill="none" stroke="#000000" d="M 87.8398681640625 355 L 87.8398681640625 359" stroke-miterlimit="10"/></g><g transform="translate(2,-78) scale(1,1)"><path fill="none" stroke="#000000" d="M 84.8398681640625 363 L 84.8398681640625 359 L 90.8398681640625 359" stroke-miterlimit="10"/></g><g transform="translate(2,-78) scale(1,1)"><path fill="none" stroke="#000000" d="M 90.8398681640625 363 L 90.8398681640625 359 L 84.8398681640625 359" stroke-miterlimit="10"/></g><g transform="translate(2,-78) scale(1,1)"><g><path fill="none" stroke="none"/><text fill="#000000" stroke="none" font-family="Source Code Pro" font-size="13px" font-style="normal" font-weight="normal" text-decoration="none" x="63.199920654296875" y="384.5">«ModelLibrary»</text></g></g><g transform="translate(2,-78) scale(1,1)"><g><path fill="none" stroke="none"/><text fill="#000000" stroke="none" font-family="Source Code Pro" font-size="13px" font-style="normal" font-weight="bold" text-decoration="none" x="94.39987182617188" y="399.5">signal</text></g></g><g transform="translate(2,-78) scale(1,1)"><g><path fill="none" stroke="none"/><text fill="#000000" stroke="none" font-family="Source Code Pro" font-size="13px" font-style="normal" font-weight="normal" text-decoration="none" x="70.99990844726562" y="414.5">(from async)</text></g></g><g transform="translate(2,-78) scale(1,1)"><path fill="none" stroke="#000000" d="M 164 351 L 301 252" stroke-miterlimit="10" stroke-dasharray="3"/></g><g transform="translate(2,-78) scale(1,1)"><path fill="none" stroke="#000000" d="M 295.2284584044255 261.3642569171586 L 301 252 L 290.29737423297314 254.54043336676497" stroke-miterlimit="10"/></g><g transform="translate(2,-78) scale(1,1)"><rect fill="#C0C0C0" stroke="none" x="479" y="359" width="87.83986816406252" height="15" opacity="0.2"/></g><g transform="translate(2,-78) scale(1,1)"><rect fill="#C0C0C0" stroke="none" x="479" y="373" width="219.59967041015625" height="53" opacity="0.2"/></g><g transform="translate(2,-78) scale(1,1)"><rect fill="#d8ffeb" stroke="none" x="472" y="367" width="219.59967041015625" height="52"/></g><g transform="translate(2,-78) scale(1,1)"><path fill="none" stroke="#000000" d="M 472 367 L 691.5996704101562 367 L 691.5996704101562 419 L 472 419 L 472 367 Z Z" stroke-miterlimit="10"/></g><g transform="translate(2,-78) scale(1,1)"><rect fill="#d8ffeb" stroke="none" x="472" y="352" width="87.83986816406252" height="15"/></g><g transform="translate(2,-78) scale(1,1)"><path fill="none" stroke="#000000" d="M 472 352 L 559.8398681640625 352 L 559.8398681640625 367 L 472 367 L 472 352 Z Z" stroke-miterlimit="10"/></g><g transform="translate(2,-78) scale(1,1)"><rect fill="#d8ffeb" stroke="none" x="472" y="366" width="219.59967041015625" height="53"/></g><g transform="translate(2,-78) scale(1,1)"><path fill="none" stroke="#000000" d="M 472 366 L 691.5996704101562 366 L 691.5996704101562 419 L 472 419 L 472 366 Z Z" stroke-miterlimit="10"/></g><g transform="translate(2,-78) scale(1,1)"><path fill="none" stroke="#000000" d="M 551.8398681640625 355 L 551.8398681640625 359" stroke-miterlimit="10"/></g><g transform="translate(2,-78) scale(1,1)"><path fill="none" stroke="#000000" d="M 548.8398681640625 363 L 548.8398681640625 359 L 554.8398681640625 359" stroke-miterlimit="10"/></g><g transform="translate(2,-78) scale(1,1)"><path fill="none" stroke="#000000" d="M 554.8398681640625 363 L 554.8398681640625 359 L 548.8398681640625 359" stroke-miterlimit="10"/></g><g transform="translate(2,-78) scale(1,1)"><g><path fill="none" stroke="none"/><text fill="#000000" stroke="none" font-family="Source Code Pro" font-size="13px" font-style="normal" font-weight="normal" text-decoration="none" x="527.1999206542969" y="384.5">«ModelLibrary»</text></g></g><g transform="translate(2,-78) scale(1,1)"><g><path fill="none" stroke="none"/><text fill="#000000" stroke="none" font-family="Source Code Pro" font-size="13px" font-style="normal" font-weight="bold" text-decoration="none" x="546.6998901367188" y="399.5">semaphore</text></g></g><g transform="translate(2,-78) scale(1,1)"><g><path fill="none" stroke="none"/><text fill="#000000" stroke="none" font-family="Source Code Pro" font-size="13px" font-style="normal" font-weight="normal" text-decoration="none" x="534.9999084472656" y="414.5">(from async)</text></g></g><g transform="translate(2,-78) scale(1,1)"><path fill="none" stroke="#000000" d="M 534 351 L 397 252" stroke-miterlimit="10" stroke-dasharray="3"/></g><g transform="translate(2,-78) scale(1,1)"><path fill="none" stroke="#000000" d="M 407.70262576702686 254.54043336676497 L 397 252 L 402.7715415955745 261.3642569171586" stroke-miterlimit="10"/></g><g transform="translate(2,-78) scale(1,1)"><path fill="none" stroke="#000000" d="M 294 495 L 173 420" stroke-miterlimit="10" stroke-dasharray="3"/></g><g transform="translate(2,-78) scale(1,1)"><path fill="none" stroke="#000000" d="M 183.8556587627004 421.7761398671856 L 173 420 L 179.4201893809299 428.9320304697753" stroke-miterlimit="10"/></g><g transform="translate(2,-78) scale(1,1)"><path fill="none" stroke="#000000" d="M 117 495 L 117 420" stroke-miterlimit="10" stroke-dasharray="3"/></g><g transform="translate(2,-78) scale(1,1)"><path fill="none" stroke="#000000" d="M 121.20951775601598 430.16267485762415 L 117 420 L 112.79048224398402 430.16267485762415" stroke-miterlimit="10"/></g></g></svg>