<svg version="1.1" xmlns="http://www.w3.org/2000/svg" xmlns:xlink="http://www.w3.org/1999/xlink" width="1076" height="652"><defs/><g><g transform="translate(-6,-6) scale(1,1)"><path fill="#C0C0C0" stroke="none" d="M 289 167 L 677 167 Q 687 167 687 177 L 687 237 Q 687 247 677 247 L 289 247 Q 279 247 279 237 L 279 177 Q 279 167 289 167 Z" opacity="0.2"/></g><g transform="translate(-6,-6) scale(1,1)"><path fill="#a3e0ff" stroke="none" d="M 282 160 L 670 160 Q 680 160 680 170 L 680 230 Q 680 240 670 240 L 282 240 Q 272 240 272 230 L 272 170 Q 272 160 282 160 Z"/></g><g transform="translate(-6,-6) scale(1,1)"><path fill="none" stroke="#000000" d="M 282 160 L 670 160 Q 680 160 680 170 L 680 230 Q 680 240 670 240 L 282 240 Q 272 240 272 230 L 272 170 Q 272 160 282 160 Z" stroke-miterlimit="10"/></g><g transform="translate(-6,-6) scale(1,1)"><path fill="none" stroke="#000000" d="M 272 185 L 680 185" stroke-miterlimit="10"/></g><g transform="translate(-6,-6) scale(1,1)"><g><path fill="none" stroke="none"/><text fill="#000000" stroke="none" font-family="Source Code Pro" font-size="13px" font-style="normal" font-weight="bold" text-decoration="none" x="456.5000305175781" y="179.5">limbo</text></g></g><g transform="translate(-6,-6) scale(1,1)"><path fill="#C0C0C0" stroke="none" d="M 311 32.5 C 311 27.2532944 315.2532944 23 320.5 23 C 325.7467056 23 330 27.2532944 330 32.5 C 330 37.7467056 325.7467056 42 320.5 42 C 315.2532944 42 311 37.7467056 311 32.5 Z" opacity="0.2"/></g><g transform="translate(-6,-6) scale(1,1)"><path fill="#000000" stroke="none" d="M 304 25.5 C 304 20.2532944 308.2532944 16 313.5 16 C 318.7467056 16 323 20.2532944 323 25.5 C 323 30.7467056 318.7467056 35 313.5 35 C 308.2532944 35 304 30.7467056 304 25.5 Z"/></g><g transform="translate(-6,-6) scale(1,1)"><path fill="#C0C0C0" stroke="none" d="M 297 199 L 348.39990234375 199 Q 358.39990234375 199 358.39990234375 209 L 358.39990234375 228 Q 358.39990234375 238 348.39990234375 238 L 297 238 Q 287 238 287 228 L 287 209 Q 287 199 297 199 Z" opacity="0.2"/></g><g transform="translate(-6,-6) scale(1,1)"><path fill="#6dceff" stroke="none" d="M 290 192 L 341.39990234375 192 Q 351.39990234375 192 351.39990234375 202 L 351.39990234375 221 Q 351.39990234375 231 341.39990234375 231 L 290 231 Q 280 231 280 221 L 280 202 Q 280 192 290 192 Z"/></g><g transform="translate(-6,-6) scale(1,1)"><path fill="none" stroke="#000000" d="M 290 192 L 341.39990234375 192 Q 351.39990234375 192 351.39990234375 202 L 351.39990234375 221 Q 351.39990234375 231 341.39990234375 231 L 290 231 Q 280 231 280 221 L 280 202 Q 280 192 290 192 Z" stroke-miterlimit="10"/></g><g transform="translate(-6,-6) scale(1,1)"><g><path fill="none" stroke="none"/><text fill="#000000" stroke="none" font-family="Source Code Pro" font-size="13px" font-style="normal" font-weight="bold" text-decoration="none" x="284.5" y="211.5">creating</text></g></g><g transform="translate(-6,-6) scale(1,1)"><path fill="#C0C0C0" stroke="none" d="M 297 319 L 501 319 Q 511 319 511 329 L 511 389 Q 511 399 501 399 L 297 399 Q 287 399 287 389 L 287 329 Q 287 319 297 319 Z" opacity="0.2"/></g><g transform="translate(-6,-6) scale(1,1)"><path fill="#adc8ff" stroke="none" d="M 290 312 L 494 312 Q 504 312 504 322 L 504 382 Q 504 392 494 392 L 290 392 Q 280 392 280 382 L 280 322 Q 280 312 290 312 Z"/></g><g transform="translate(-6,-6) scale(1,1)"><path fill="none" stroke="#000000" d="M 290 312 L 494 312 Q 504 312 504 322 L 504 382 Q 504 392 494 392 L 290 392 Q 280 392 280 382 L 280 322 Q 280 312 290 312 Z" stroke-miterlimit="10"/></g><g transform="translate(-6,-6) scale(1,1)"><path fill="none" stroke="#000000" d="M 280 337 L 504 337" stroke-miterlimit="10"/></g><g transform="translate(-6,-6) scale(1,1)"><g><path fill="none" stroke="none"/><text fill="#000000" stroke="none" font-family="Source Code Pro" font-size="13px" font-style="normal" font-weight="bold" text-decoration="none" x="349.1000671386719" y="331.5">main memory</text></g></g><g transform="translate(-6,-6) scale(1,1)"><path fill="#C0C0C0" stroke="none" d="M 33 575 L 1069 575 Q 1079 575 1079 585 L 1079 645 Q 1079 655 1069 655 L 33 655 Q 23 655 23 645 L 23 585 Q 23 575 33 575 Z" opacity="0.2"/></g><g transform="translate(-6,-6) scale(1,1)"><path fill="#adadff" stroke="none" d="M 26 568 L 1062 568 Q 1072 568 1072 578 L 1072 638 Q 1072 648 1062 648 L 26 648 Q 16 648 16 638 L 16 578 Q 16 568 26 568 Z"/></g><g transform="translate(-6,-6) scale(1,1)"><path fill="none" stroke="#000000" d="M 26 568 L 1062 568 Q 1072 568 1072 578 L 1072 638 Q 1072 648 1062 648 L 26 648 Q 16 648 16 638 L 16 578 Q 16 568 26 568 Z" stroke-miterlimit="10"/></g><g transform="translate(-6,-6) scale(1,1)"><path fill="none" stroke="#000000" d="M 16 593 L 1072 593" stroke-miterlimit="10"/></g><g transform="translate(-6,-6) scale(1,1)"><g><path fill="none" stroke="none"/><text fill="#000000" stroke="none" font-family="Source Code Pro" font-size="13px" font-style="normal" font-weight="bold" text-decoration="none" x="505.00006103515625" y="587.5">swap space</text></g></g><g transform="translate(-6,-6) scale(1,1)"><path fill="#C0C0C0" stroke="none" d="M 529 199 L 568 199 Q 578 199 578 209 L 578 228 Q 578 238 568 238 L 529 238 Q 519 238 519 228 L 519 209 Q 519 199 529 199 Z" opacity="0.2"/></g><g transform="translate(-6,-6) scale(1,1)"><path fill="#6dceff" stroke="none" d="M 522 192 L 561 192 Q 571 192 571 202 L 571 221 Q 571 231 561 231 L 522 231 Q 512 231 512 221 L 512 202 Q 512 192 522 192 Z"/></g><g transform="translate(-6,-6) scale(1,1)"><path fill="none" stroke="#000000" d="M 522 192 L 561 192 Q 571 192 571 202 L 571 221 Q 571 231 561 231 L 522 231 Q 512 231 512 221 L 512 202 Q 512 192 522 192 Z" stroke-miterlimit="10"/></g><g transform="translate(-6,-6) scale(1,1)"><g><path fill="none" stroke="none"/><text fill="#000000" stroke="none" font-family="Source Code Pro" font-size="13px" font-style="normal" font-weight="bold" text-decoration="none" x="518.1000366210938" y="211.5">killed</text></g></g><g transform="translate(-6,-6) scale(1,1)"><path fill="#C0C0C0" stroke="none" d="M 575 35.5 C 575 28.59644 580.59644 23 587.5 23 C 594.40356 23 600 28.59644 600 35.5 C 600 42.40356 594.40356 48 587.5 48 C 580.59644 48 575 42.40356 575 35.5 Z" opacity="0.2"/></g><g transform="translate(-6,-6) scale(1,1)"><path fill="none" stroke="#000000" d="M 568 28.5 C 568 21.59644 573.59644 16 580.5 16 C 587.40356 16 593 21.59644 593 28.5 C 593 35.40356 587.40356 41 580.5 41 C 573.59644 41 568 35.40356 568 28.5 Z" stroke-miterlimit="10"/></g><g transform="translate(-6,-6) scale(1,1)"><path fill="#000000" stroke="none" d="M 573 28.5 C 573 24.357864 576.357864 21 580.5 21 C 584.642136 21 588 24.357864 588 28.5 C 588 32.642136 584.642136 36 580.5 36 C 576.357864 36 573 32.642136 573 28.5 Z"/></g><g transform="translate(-6,-6) scale(1,1)"><path fill="#C0C0C0" stroke="none" d="M 554 119 L 617 119 Q 620 119 620 122 L 620 121 Q 620 124 617 124 L 554 124 Q 551 124 551 121 L 551 122 Q 551 119 554 119 Z" opacity="0.2"/></g><g transform="translate(-6,-6) scale(1,1)"><path fill="#000000" stroke="none" d="M 547 112 L 610 112 Q 613 112 613 115 L 613 115 Q 613 118 610 118 L 547 118 Q 544 118 544 115 L 544 115 Q 544 112 547 112 Z"/></g><g transform="translate(-6,-6) scale(1,1)"><path fill="none" stroke="#000000" d="M 313 36 L 315 191" stroke-miterlimit="10"/></g><g transform="translate(-6,-6) scale(1,1)"><path fill="none" stroke="#000000" d="M 310.6597122547371 180.89248288211587 L 315 191 L 319.0780469980387 180.78385920800875" stroke-miterlimit="10"/></g><g transform="translate(-6,-6) scale(1,1)"><g><path fill="none" stroke="none"/><text fill="#000000" stroke="none" font-family="Source Code Pro" font-size="13px" font-style="normal" font-weight="normal" text-decoration="none" x="182.5" y="107.5">process request</text></g></g><g transform="translate(-6,-6) scale(1,1)"><path fill="none" stroke="#000000" d="M 352 211 L 511 211" stroke-miterlimit="10"/></g><g transform="translate(-6,-6) scale(1,1)"><path fill="none" stroke="#000000" d="M 500.83732514237585 215.209517756016 L 511 211 L 500.83732514237585 206.790482243984" stroke-miterlimit="10"/></g><g transform="translate(-6,-6) scale(1,1)"><g><path fill="none" stroke="none"/><text fill="#000000" stroke="none" font-family="Source Code Pro" font-size="13px" font-style="normal" font-weight="normal" text-decoration="none" x="368.5" y="202.5">lack of resource</text></g></g><g transform="translate(-6,-6) scale(1,1)"><path fill="none" stroke="#000000" d="M 315 232 L 317 343" stroke-miterlimit="10"/></g><g transform="translate(-6,-6) scale(1,1)"><path fill="none" stroke="#000000" d="M 312.60808384297127 332.91480924971523 L 317 343 L 321.0257530720484 332.763139533876" stroke-miterlimit="10"/></g><g transform="translate(-6,-6) scale(1,1)"><g><path fill="none" stroke="none"/><text fill="#000000" stroke="none" font-family="Source Code Pro" font-size="13px" font-style="normal" font-weight="normal" text-decoration="none" x="166.5" y="291.5">resource available</text></g></g><g transform="translate(-6,-6) scale(1,1)"><path fill="#C0C0C0" stroke="none" d="M 305 351 L 344 351 Q 354 351 354 361 L 354 380 Q 354 390 344 390 L 305 390 Q 295 390 295 380 L 295 361 Q 295 351 305 351 Z" opacity="0.2"/></g><g transform="translate(-6,-6) scale(1,1)"><path fill="#82abff" stroke="none" d="M 298 344 L 337 344 Q 347 344 347 354 L 347 373 Q 347 383 337 383 L 298 383 Q 288 383 288 373 L 288 354 Q 288 344 298 344 Z"/></g><g transform="translate(-6,-6) scale(1,1)"><path fill="none" stroke="#000000" d="M 298 344 L 337 344 Q 347 344 347 354 L 347 373 Q 347 383 337 383 L 298 383 Q 288 383 288 373 L 288 354 Q 288 344 298 344 Z" stroke-miterlimit="10"/></g><g transform="translate(-6,-6) scale(1,1)"><g><path fill="none" stroke="none"/><text fill="#000000" stroke="none" font-family="Source Code Pro" font-size="13px" font-style="normal" font-weight="bold" text-decoration="none" x="298.0000305175781" y="363.5">ready</text></g></g><g transform="translate(-6,-6) scale(1,1)"><path fill="#C0C0C0" stroke="none" d="M 449 351 L 492.59991455078125 351 Q 502.59991455078125 351 502.59991455078125 361 L 502.59991455078125 380 Q 502.59991455078125 390 492.59991455078125 390 L 449 390 Q 439 390 439 380 L 439 361 Q 439 351 449 351 Z" opacity="0.2"/></g><g transform="translate(-6,-6) scale(1,1)"><path fill="#82abff" stroke="none" d="M 442 344 L 485.59991455078125 344 Q 495.59991455078125 344 495.59991455078125 354 L 495.59991455078125 373 Q 495.59991455078125 383 485.59991455078125 383 L 442 383 Q 432 383 432 373 L 432 354 Q 432 344 442 344 Z"/></g><g transform="translate(-6,-6) scale(1,1)"><path fill="none" stroke="#000000" d="M 442 344 L 485.59991455078125 344 Q 495.59991455078125 344 495.59991455078125 354 L 495.59991455078125 373 Q 495.59991455078125 383 485.59991455078125 383 L 442 383 Q 432 383 432 373 L 432 354 Q 432 344 442 344 Z" stroke-miterlimit="10"/></g><g transform="translate(-6,-6) scale(1,1)"><g><path fill="none" stroke="none"/><text fill="#000000" stroke="none" font-family="Source Code Pro" font-size="13px" font-style="normal" font-weight="bold" text-decoration="none" x="436.5" y="363.5">running</text></g></g><g transform="translate(-6,-6) scale(1,1)"><path fill="#C0C0C0" stroke="none" d="M 601 199 L 667.9998779296875 199 Q 677.9998779296875 199 677.9998779296875 209 L 677.9998779296875 228 Q 677.9998779296875 238 667.9998779296875 238 L 601 238 Q 591 238 591 228 L 591 209 Q 591 199 601 199 Z" opacity="0.2"/></g><g transform="translate(-6,-6) scale(1,1)"><path fill="#6dceff" stroke="none" d="M 594 192 L 660.9998779296875 192 Q 670.9998779296875 192 670.9998779296875 202 L 670.9998779296875 221 Q 670.9998779296875 231 660.9998779296875 231 L 594 231 Q 584 231 584 221 L 584 202 Q 584 192 594 192 Z"/></g><g transform="translate(-6,-6) scale(1,1)"><path fill="none" stroke="#000000" d="M 594 192 L 660.9998779296875 192 Q 670.9998779296875 192 670.9998779296875 202 L 670.9998779296875 221 Q 670.9998779296875 231 660.9998779296875 231 L 594 231 Q 584 231 584 221 L 584 202 Q 584 192 594 192 Z" stroke-miterlimit="10"/></g><g transform="translate(-6,-6) scale(1,1)"><g><path fill="none" stroke="none"/><text fill="#000000" stroke="none" font-family="Source Code Pro" font-size="13px" font-style="normal" font-weight="bold" text-decoration="none" x="588.5" y="211.5">terminated</text></g></g><g transform="translate(-6,-6) scale(1,1)"><path fill="#C0C0C0" stroke="none" d="M 41 607 L 115.79986572265625 607 Q 125.79986572265625 607 125.79986572265625 617 L 125.79986572265625 636 Q 125.79986572265625 646 115.79986572265625 646 L 41 646 Q 31 646 31 636 L 31 617 Q 31 607 41 607 Z" opacity="0.2"/></g><g transform="translate(-6,-6) scale(1,1)"><path fill="#8282ff" stroke="none" d="M 34 600 L 108.79986572265625 600 Q 118.79986572265625 600 118.79986572265625 610 L 118.79986572265625 629 Q 118.79986572265625 639 108.79986572265625 639 L 34 639 Q 24 639 24 629 L 24 610 Q 24 600 34 600 Z"/></g><g transform="translate(-6,-6) scale(1,1)"><path fill="none" stroke="#000000" d="M 34 600 L 108.79986572265625 600 Q 118.79986572265625 600 118.79986572265625 610 L 118.79986572265625 629 Q 118.79986572265625 639 108.79986572265625 639 L 34 639 Q 24 639 24 629 L 24 610 Q 24 600 34 600 Z" stroke-miterlimit="10"/></g><g transform="translate(-6,-6) scale(1,1)"><g><path fill="none" stroke="none"/><text fill="#000000" stroke="none" font-family="Source Code Pro" font-size="13px" font-style="normal" font-weight="bold" text-decoration="none" x="28.5" y="619.5">interrupted</text></g></g><g transform="translate(-6,-6) scale(1,1)"><path fill="#C0C0C0" stroke="none" d="M 1017 607 L 1060.5999145507812 607 Q 1070.5999145507812 607 1070.5999145507812 617 L 1070.5999145507812 636 Q 1070.5999145507812 646 1060.5999145507812 646 L 1017 646 Q 1007 646 1007 636 L 1007 617 Q 1007 607 1017 607 Z" opacity="0.2"/></g><g transform="translate(-6,-6) scale(1,1)"><path fill="#8282ff" stroke="none" d="M 1010 600 L 1053.5999145507812 600 Q 1063.5999145507812 600 1063.5999145507812 610 L 1063.5999145507812 629 Q 1063.5999145507812 639 1053.5999145507812 639 L 1010 639 Q 1000 639 1000 629 L 1000 610 Q 1000 600 1010 600 Z"/></g><g transform="translate(-6,-6) scale(1,1)"><path fill="none" stroke="#000000" d="M 1010 600 L 1053.5999145507812 600 Q 1063.5999145507812 600 1063.5999145507812 610 L 1063.5999145507812 629 Q 1063.5999145507812 639 1053.5999145507812 639 L 1010 639 Q 1000 639 1000 629 L 1000 610 Q 1000 600 1010 600 Z" stroke-miterlimit="10"/></g><g transform="translate(-6,-6) scale(1,1)"><g><path fill="none" stroke="none"/><text fill="#000000" stroke="none" font-family="Source Code Pro" font-size="13px" font-style="normal" font-weight="bold" text-decoration="none" x="1004.5" y="619.5">delayed</text></g></g><g transform="translate(-6,-6) scale(1,1)"><path fill="#C0C0C0" stroke="none" d="M 657 607 L 716.1998901367188 607 Q 726.1998901367188 607 726.1998901367188 617 L 726.1998901367188 636 Q 726.1998901367188 646 716.1998901367188 646 L 657 646 Q 647 646 647 636 L 647 617 Q 647 607 657 607 Z" opacity="0.2"/></g><g transform="translate(-6,-6) scale(1,1)"><path fill="#8282ff" stroke="none" d="M 650 600 L 709.1998901367188 600 Q 719.1998901367188 600 719.1998901367188 610 L 719.1998901367188 629 Q 719.1998901367188 639 709.1998901367188 639 L 650 639 Q 640 639 640 629 L 640 610 Q 640 600 650 600 Z"/></g><g transform="translate(-6,-6) scale(1,1)"><path fill="none" stroke="#000000" d="M 650 600 L 709.1998901367188 600 Q 719.1998901367188 600 719.1998901367188 610 L 719.1998901367188 629 Q 719.1998901367188 639 709.1998901367188 639 L 650 639 Q 640 639 640 629 L 640 610 Q 640 600 650 600 Z" stroke-miterlimit="10"/></g><g transform="translate(-6,-6) scale(1,1)"><g><path fill="none" stroke="none"/><text fill="#000000" stroke="none" font-family="Source Code Pro" font-size="13px" font-style="normal" font-weight="bold" text-decoration="none" x="644.5" y="619.5">suspended</text></g></g><g transform="translate(-6,-6) scale(1,1)"><path fill="none" stroke="#000000" d="M 348 363 L 431 363" stroke-miterlimit="10"/></g><g transform="translate(-6,-6) scale(1,1)"><path fill="none" stroke="#000000" d="M 420.83732514237585 367.209517756016 L 431 363 L 420.83732514237585 358.790482243984" stroke-miterlimit="10"/></g><g transform="translate(-6,-6) scale(1,1)"><g><path fill="none" stroke="none"/><text fill="#000000" stroke="none" font-family="Source Code Pro" font-size="13px" font-style="normal" font-weight="normal" text-decoration="none" x="357.5" y="354.5">schedule</text></g></g><g transform="translate(-6,-6) scale(1,1)"><path fill="none" stroke="#000000" d="M 578 111 L 580 42" stroke-miterlimit="10"/></g><g transform="translate(-6,-6) scale(1,1)"><path fill="none" stroke="#000000" d="M 583.9133039154419 52.28037219488609 L 580 42 L 575.4978028433272 52.03644462757842" stroke-miterlimit="10"/></g><g transform="translate(-6,-6) scale(1,1)"><g><path fill="none" stroke="none"/><text fill="#000000" stroke="none" font-family="Source Code Pro" font-size="13px" font-style="normal" font-weight="normal" text-decoration="none" x="422.5" y="84.5">process destruction</text></g></g><g transform="translate(-6,-6) scale(1,1)"><path fill="none" stroke="#000000" d="M 617 191 L 580 118" stroke-miterlimit="10"/></g><g transform="translate(-6,-6) scale(1,1)"><path fill="none" stroke="#000000" d="M 588.3492525604707 125.16170242899499 L 580 118 L 580.8397247509655 128.96790145573053" stroke-miterlimit="10"/></g><g transform="translate(-6,-6) scale(1,1)"><path fill="none" stroke="#000000" d="M 485 343 L 604 232" stroke-miterlimit="10"/></g><g transform="translate(-6,-6) scale(1,1)"><path fill="none" stroke="#000000" d="M 599.4397556271905 242.01020335758764 L 604 232 L 593.697137604912 235.85370295532516" stroke-miterlimit="10"/></g><g transform="translate(-6,-6) scale(1,1)"><g><path fill="none" stroke="none"/><text fill="#000000" stroke="none" font-family="Source Code Pro" font-size="13px" font-style="normal" font-weight="normal" text-decoration="none" x="478.5" y="280.5">completed</text></g></g><g transform="translate(-6,-6) scale(1,1)"><path fill="#C0C0C0" stroke="none" d="M 666 367 L 729 367 Q 732 367 732 370 L 732 369 Q 732 372 729 372 L 666 372 Q 663 372 663 369 L 663 370 Q 663 367 666 367 Z" opacity="0.2"/></g><g transform="translate(-6,-6) scale(1,1)"><path fill="#000000" stroke="none" d="M 659 360 L 722 360 Q 725 360 725 363 L 725 363 Q 725 366 722 366 L 659 366 Q 656 366 656 363 L 656 363 Q 656 360 659 360 Z"/></g><g transform="translate(-6,-6) scale(1,1)"><path fill="none" stroke="#000000" d="M 687 359 L 562 232" stroke-miterlimit="10"/></g><g transform="translate(-6,-6) scale(1,1)"><path fill="none" stroke="#000000" d="M 572.12894698971 236.29003879698593 L 562 232 L 566.1287315778009 242.19576262760515" stroke-miterlimit="10"/></g><g transform="translate(-6,-6) scale(1,1)"><g><path fill="none" stroke="none"/><text fill="#000000" stroke="none" font-family="Source Code Pro" font-size="13px" font-style="normal" font-weight="normal" text-decoration="none" x="577.5" y="309.5">delete</text></g></g><g transform="translate(-6,-6) scale(1,1)"><path fill="none" stroke="#000000" d="M 431 384 L 102 599" stroke-miterlimit="10"/></g><g transform="translate(-6,-6) scale(1,1)"><path fill="none" stroke="#000000" d="M 108.20442626433012 589.916768486354 L 102 599 L 112.81000648326614 596.9643772864933" stroke-miterlimit="10"/></g><g transform="translate(-6,-6) scale(1,1)"><g><path fill="none" stroke="none"/><text fill="#000000" stroke="none" font-family="Source Code Pro" font-size="13px" font-style="normal" font-weight="normal" text-decoration="none" x="318.5" y="468.5">interrupt</text></g></g><g transform="translate(-6,-6) scale(1,1)"><path fill="none" stroke="#000000" d="M 497 378 L 999 605" stroke-miterlimit="10"/></g><g transform="translate(-6,-6) scale(1,1)"><path fill="none" stroke="#000000" d="M 988.0056229291347 604.6483285288351 L 999 605 L 991.4744707002798 596.9771321362587" stroke-miterlimit="10"/></g><g transform="translate(-6,-6) scale(1,1)"><g><path fill="none" stroke="none"/><text fill="#000000" stroke="none" font-family="Source Code Pro" font-size="13px" font-style="normal" font-weight="normal" text-decoration="none" x="726.5" y="483.5">timeout</text></g></g><g transform="translate(-6,-6) scale(1,1)"><path fill="none" stroke="#000000" d="M 481 384 L 662 599" stroke-miterlimit="10"/></g><g transform="translate(-6,-6) scale(1,1)"><path fill="none" stroke="#000000" d="M 652.2346757985434 593.9365581626283 L 662 599 L 658.6752670960142 588.5144789773158" stroke-miterlimit="10"/></g><g transform="translate(-6,-6) scale(1,1)"><g><path fill="none" stroke="none"/><text fill="#000000" stroke="none" font-family="Source Code Pro" font-size="13px" font-style="normal" font-weight="normal" text-decoration="none" x="534.5" y="476.5">wait for resource</text></g></g><g transform="translate(-6,-6) scale(1,1)"><path fill="none" stroke="#000000" d="M 90 599 L 297 384" stroke-miterlimit="10"/></g><g transform="translate(-6,-6) scale(1,1)"><path fill="none" stroke="#000000" d="M 292.9838611843544 394.2406361625372 L 297 384 L 286.91893773507627 388.4013842834647" stroke-miterlimit="10"/></g><g transform="translate(-6,-6) scale(1,1)"><g><path fill="none" stroke="none"/><text fill="#000000" stroke="none" font-family="Source Code Pro" font-size="13px" font-style="normal" font-weight="normal" text-decoration="none" x="86.5" y="467.5">interrupt return</text></g></g><g transform="translate(-6,-6) scale(1,1)"><path fill="none" stroke="#000000" d="M 119 599 L 680 366" stroke-miterlimit="10"/></g><g transform="translate(-6,-6) scale(1,1)"><path fill="none" stroke="#000000" d="M 672.2292365960362 373.7855787273406 L 680 366 L 669.0000049884967 366.0104760156252" stroke-miterlimit="10"/></g><g transform="translate(-6,-6) scale(1,1)"><path fill="none" stroke="#000000" d="M 651 599 L 347 384" stroke-miterlimit="10"/></g><g transform="translate(-6,-6) scale(1,1)"><path fill="none" stroke="#000000" d="M 357.7279447260804 386.4312963525994 L 347 384 L 352.86661632600874 393.3049886020031" stroke-miterlimit="10"/></g><g transform="translate(-6,-6) scale(1,1)"><g><path fill="none" stroke="none"/><text fill="#000000" stroke="none" font-family="Source Code Pro" font-size="13px" font-style="normal" font-weight="normal" text-decoration="none" x="398.5" y="532.5">resource available</text></g></g><g transform="translate(-6,-6) scale(1,1)"><path fill="none" stroke="#000000" d="M 1004 599 L 695 366" stroke-miterlimit="10"/></g><g transform="translate(-6,-6) scale(1,1)"><path fill="none" stroke="#000000" d="M 705.648760749591 368.7575160013986 L 695 366 L 700.5799526734496 375.4796692010883" stroke-miterlimit="10"/></g><g transform="translate(-6,-6) scale(1,1)"><path fill="none" stroke="#000000" d="M 680 599 L 690 366" stroke-miterlimit="10"/></g><g transform="translate(-6,-6) scale(1,1)"><path fill="none" stroke="#000000" d="M 693.7698810018486 376.33382781121793 L 690 366 L 685.3585886997472 375.97282814159985" stroke-miterlimit="10"/></g><g transform="translate(-6,-6) scale(1,1)"><path fill="none" stroke="#000000" d="M 549 191 L 576 118" stroke-miterlimit="10"/></g><g transform="translate(-6,-6) scale(1,1)"><path fill="none" stroke="#000000" d="M 576.4227321259194 128.99187416002002 L 576 118 L 568.5264879963637 126.0713455093624" stroke-miterlimit="10"/></g></g></svg>