<svg version="1.1" xmlns="http://www.w3.org/2000/svg" xmlns:xlink="http://www.w3.org/1999/xlink" width="1076" height="652"><defs/><g><g transform="translate(-302,-238) scale(1,1)"><path fill="#C0C0C0" stroke="none" d="M 585 399 L 1021 399 Q 1031 399 1031 409 L 1031 469 Q 1031 479 1021 479 L 585 479 Q 575 479 575 469 L 575 409 Q 575 399 585 399 Z" opacity="0.2"/></g><g transform="translate(-302,-238) scale(1,1)"><path fill="#a3e0ff" stroke="none" d="M 578 392 L 1014 392 Q 1024 392 1024 402 L 1024 462 Q 1024 472 1014 472 L 578 472 Q 568 472 568 462 L 568 402 Q 568 392 578 392 Z"/></g><g transform="translate(-302,-238) scale(1,1)"><path fill="none" stroke="#000000" d="M 578 392 L 1014 392 Q 1024 392 1024 402 L 1024 462 Q 1024 472 1014 472 L 578 472 Q 568 472 568 462 L 568 402 Q 568 392 578 392 Z" stroke-miterlimit="10"/></g><g transform="translate(-302,-238) scale(1,1)"><path fill="none" stroke="#000000" d="M 568 417 L 1024 417" stroke-miterlimit="10"/></g><g transform="translate(-302,-238) scale(1,1)"><g><path fill="none" stroke="none"/><text fill="#000000" stroke="none" font-family="Source Code Pro" font-size="13px" font-style="normal" font-weight="bold" text-decoration="none" x="776.5000305175781" y="411.5">limbo</text></g></g><g transform="translate(-302,-238) scale(1,1)"><path fill="#C0C0C0" stroke="none" d="M 607 264.5 C 607 259.2532944 611.2532944 255 616.5 255 C 621.7467056 255 626 259.2532944 626 264.5 C 626 269.7467056 621.7467056 274 616.5 274 C 611.2532944 274 607 269.7467056 607 264.5 Z" opacity="0.2"/></g><g transform="translate(-302,-238) scale(1,1)"><path fill="#000000" stroke="none" d="M 600 257.5 C 600 252.2532944 604.2532944 248 609.5 248 C 614.7467056 248 619 252.2532944 619 257.5 C 619 262.7467056 614.7467056 267 609.5 267 C 604.2532944 267 600 262.7467056 600 257.5 Z"/></g><g transform="translate(-302,-238) scale(1,1)"><path fill="#C0C0C0" stroke="none" d="M 593 431 L 644.39990234375 431 Q 654.39990234375 431 654.39990234375 441 L 654.39990234375 460 Q 654.39990234375 470 644.39990234375 470 L 593 470 Q 583 470 583 460 L 583 441 Q 583 431 593 431 Z" opacity="0.2"/></g><g transform="translate(-302,-238) scale(1,1)"><path fill="#6dceff" stroke="none" d="M 586 424 L 637.39990234375 424 Q 647.39990234375 424 647.39990234375 434 L 647.39990234375 453 Q 647.39990234375 463 637.39990234375 463 L 586 463 Q 576 463 576 453 L 576 434 Q 576 424 586 424 Z"/></g><g transform="translate(-302,-238) scale(1,1)"><path fill="none" stroke="#000000" d="M 586 424 L 637.39990234375 424 Q 647.39990234375 424 647.39990234375 434 L 647.39990234375 453 Q 647.39990234375 463 637.39990234375 463 L 586 463 Q 576 463 576 453 L 576 434 Q 576 424 586 424 Z" stroke-miterlimit="10"/></g><g transform="translate(-302,-238) scale(1,1)"><g><path fill="none" stroke="none"/><text fill="#000000" stroke="none" font-family="Source Code Pro" font-size="13px" font-style="normal" font-weight="bold" text-decoration="none" x="580.5" y="443.5">creating</text></g></g><g transform="translate(-302,-238) scale(1,1)"><path fill="#C0C0C0" stroke="none" d="M 593 551 L 797 551 Q 807 551 807 561 L 807 621 Q 807 631 797 631 L 593 631 Q 583 631 583 621 L 583 561 Q 583 551 593 551 Z" opacity="0.2"/></g><g transform="translate(-302,-238) scale(1,1)"><path fill="#adc8ff" stroke="none" d="M 586 544 L 790 544 Q 800 544 800 554 L 800 614 Q 800 624 790 624 L 586 624 Q 576 624 576 614 L 576 554 Q 576 544 586 544 Z"/></g><g transform="translate(-302,-238) scale(1,1)"><path fill="none" stroke="#000000" d="M 586 544 L 790 544 Q 800 544 800 554 L 800 614 Q 800 624 790 624 L 586 624 Q 576 624 576 614 L 576 554 Q 576 544 586 544 Z" stroke-miterlimit="10"/></g><g transform="translate(-302,-238) scale(1,1)"><path fill="none" stroke="#000000" d="M 576 569 L 800 569" stroke-miterlimit="10"/></g><g transform="translate(-302,-238) scale(1,1)"><g><path fill="none" stroke="none"/><text fill="#000000" stroke="none" font-family="Source Code Pro" font-size="13px" font-style="normal" font-weight="bold" text-decoration="none" x="645.1000671386719" y="563.5">main memory</text></g></g><g transform="translate(-302,-238) scale(1,1)"><path fill="#C0C0C0" stroke="none" d="M 329 807 L 1365 807 Q 1375 807 1375 817 L 1375 877 Q 1375 887 1365 887 L 329 887 Q 319 887 319 877 L 319 817 Q 319 807 329 807 Z" opacity="0.2"/></g><g transform="translate(-302,-238) scale(1,1)"><path fill="#adadff" stroke="none" d="M 322 800 L 1358 800 Q 1368 800 1368 810 L 1368 870 Q 1368 880 1358 880 L 322 880 Q 312 880 312 870 L 312 810 Q 312 800 322 800 Z"/></g><g transform="translate(-302,-238) scale(1,1)"><path fill="none" stroke="#000000" d="M 322 800 L 1358 800 Q 1368 800 1368 810 L 1368 870 Q 1368 880 1358 880 L 322 880 Q 312 880 312 870 L 312 810 Q 312 800 322 800 Z" stroke-miterlimit="10"/></g><g transform="translate(-302,-238) scale(1,1)"><path fill="none" stroke="#000000" d="M 312 825 L 1368 825" stroke-miterlimit="10"/></g><g transform="translate(-302,-238) scale(1,1)"><g><path fill="none" stroke="none"/><text fill="#000000" stroke="none" font-family="Source Code Pro" font-size="13px" font-style="normal" font-weight="bold" text-decoration="none" x="801.0000610351562" y="819.5">swap space</text></g></g><g transform="translate(-302,-238) scale(1,1)"><path fill="#C0C0C0" stroke="none" d="M 825 431 L 864 431 Q 874 431 874 441 L 874 460 Q 874 470 864 470 L 825 470 Q 815 470 815 460 L 815 441 Q 815 431 825 431 Z" opacity="0.2"/></g><g transform="translate(-302,-238) scale(1,1)"><path fill="#6dceff" stroke="none" d="M 818 424 L 857 424 Q 867 424 867 434 L 867 453 Q 867 463 857 463 L 818 463 Q 808 463 808 453 L 808 434 Q 808 424 818 424 Z"/></g><g transform="translate(-302,-238) scale(1,1)"><path fill="none" stroke="#000000" d="M 818 424 L 857 424 Q 867 424 867 434 L 867 453 Q 867 463 857 463 L 818 463 Q 808 463 808 453 L 808 434 Q 808 424 818 424 Z" stroke-miterlimit="10"/></g><g transform="translate(-302,-238) scale(1,1)"><g><path fill="none" stroke="none"/><text fill="#000000" stroke="none" font-family="Source Code Pro" font-size="13px" font-style="normal" font-weight="bold" text-decoration="none" x="814.1000366210938" y="443.5">killed</text></g></g><g transform="translate(-302,-238) scale(1,1)"><path fill="#C0C0C0" stroke="none" d="M 871 267.5 C 871 260.59644 876.59644 255 883.5 255 C 890.40356 255 896 260.59644 896 267.5 C 896 274.40356 890.40356 280 883.5 280 C 876.59644 280 871 274.40356 871 267.5 Z" opacity="0.2"/></g><g transform="translate(-302,-238) scale(1,1)"><path fill="none" stroke="#000000" d="M 864 260.5 C 864 253.59644 869.59644 248 876.5 248 C 883.40356 248 889 253.59644 889 260.5 C 889 267.40356 883.40356 273 876.5 273 C 869.59644 273 864 267.40356 864 260.5 Z" stroke-miterlimit="10"/></g><g transform="translate(-302,-238) scale(1,1)"><path fill="#000000" stroke="none" d="M 869 260.5 C 869 256.357864 872.357864 253 876.5 253 C 880.642136 253 884 256.357864 884 260.5 C 884 264.642136 880.642136 268 876.5 268 C 872.357864 268 869 264.642136 869 260.5 Z"/></g><g transform="translate(-302,-238) scale(1,1)"><path fill="#C0C0C0" stroke="none" d="M 850 351 L 913 351 Q 916 351 916 354 L 916 353 Q 916 356 913 356 L 850 356 Q 847 356 847 353 L 847 354 Q 847 351 850 351 Z" opacity="0.2"/></g><g transform="translate(-302,-238) scale(1,1)"><path fill="#000000" stroke="none" d="M 843 344 L 906 344 Q 909 344 909 347 L 909 347 Q 909 350 906 350 L 843 350 Q 840 350 840 347 L 840 347 Q 840 344 843 344 Z"/></g><g transform="translate(-302,-238) scale(1,1)"><path fill="none" stroke="#000000" d="M 609 268 L 611 423" stroke-miterlimit="10"/></g><g transform="translate(-302,-238) scale(1,1)"><path fill="none" stroke="#000000" d="M 606.6597122547371 412.89248288211587 L 611 423 L 615.0780469980386 412.7838592080088" stroke-miterlimit="10"/></g><g transform="translate(-302,-238) scale(1,1)"><g><path fill="none" stroke="none"/><text fill="#000000" stroke="none" font-family="Source Code Pro" font-size="13px" font-style="normal" font-weight="normal" text-decoration="none" x="478.5" y="339.5">process request</text></g></g><g transform="translate(-302,-238) scale(1,1)"><path fill="none" stroke="#000000" d="M 648 443 L 807 443" stroke-miterlimit="10"/></g><g transform="translate(-302,-238) scale(1,1)"><path fill="none" stroke="#000000" d="M 796.8373251423759 447.209517756016 L 807 443 L 796.8373251423758 438.790482243984" stroke-miterlimit="10"/></g><g transform="translate(-302,-238) scale(1,1)"><g><path fill="none" stroke="none"/><text fill="#000000" stroke="none" font-family="Source Code Pro" font-size="13px" font-style="normal" font-weight="normal" text-decoration="none" x="664.5" y="434.5">lack of resource</text></g></g><g transform="translate(-302,-238) scale(1,1)"><path fill="none" stroke="#000000" d="M 611 464 L 613 575" stroke-miterlimit="10"/></g><g transform="translate(-302,-238) scale(1,1)"><path fill="none" stroke="#000000" d="M 608.6080838429713 564.9148092497152 L 613 575 L 617.0257530720484 564.763139533876" stroke-miterlimit="10"/></g><g transform="translate(-302,-238) scale(1,1)"><g><path fill="none" stroke="none"/><text fill="#000000" stroke="none" font-family="Source Code Pro" font-size="13px" font-style="normal" font-weight="normal" text-decoration="none" x="462.5" y="523.5">resource available</text></g></g><g transform="translate(-302,-238) scale(1,1)"><path fill="#C0C0C0" stroke="none" d="M 601 583 L 640 583 Q 650 583 650 593 L 650 612 Q 650 622 640 622 L 601 622 Q 591 622 591 612 L 591 593 Q 591 583 601 583 Z" opacity="0.2"/></g><g transform="translate(-302,-238) scale(1,1)"><path fill="#82abff" stroke="none" d="M 594 576 L 633 576 Q 643 576 643 586 L 643 605 Q 643 615 633 615 L 594 615 Q 584 615 584 605 L 584 586 Q 584 576 594 576 Z"/></g><g transform="translate(-302,-238) scale(1,1)"><path fill="none" stroke="#000000" d="M 594 576 L 633 576 Q 643 576 643 586 L 643 605 Q 643 615 633 615 L 594 615 Q 584 615 584 605 L 584 586 Q 584 576 594 576 Z" stroke-miterlimit="10"/></g><g transform="translate(-302,-238) scale(1,1)"><g><path fill="none" stroke="none"/><text fill="#000000" stroke="none" font-family="Source Code Pro" font-size="13px" font-style="normal" font-weight="bold" text-decoration="none" x="594.0000305175781" y="595.5">ready</text></g></g><g transform="translate(-302,-238) scale(1,1)"><path fill="#C0C0C0" stroke="none" d="M 745 583 L 788.5999145507812 583 Q 798.5999145507812 583 798.5999145507812 593 L 798.5999145507812 612 Q 798.5999145507812 622 788.5999145507812 622 L 745 622 Q 735 622 735 612 L 735 593 Q 735 583 745 583 Z" opacity="0.2"/></g><g transform="translate(-302,-238) scale(1,1)"><path fill="#82abff" stroke="none" d="M 738 576 L 781.5999145507812 576 Q 791.5999145507812 576 791.5999145507812 586 L 791.5999145507812 605 Q 791.5999145507812 615 781.5999145507812 615 L 738 615 Q 728 615 728 605 L 728 586 Q 728 576 738 576 Z"/></g><g transform="translate(-302,-238) scale(1,1)"><path fill="none" stroke="#000000" d="M 738 576 L 781.5999145507812 576 Q 791.5999145507812 576 791.5999145507812 586 L 791.5999145507812 605 Q 791.5999145507812 615 781.5999145507812 615 L 738 615 Q 728 615 728 605 L 728 586 Q 728 576 738 576 Z" stroke-miterlimit="10"/></g><g transform="translate(-302,-238) scale(1,1)"><g><path fill="none" stroke="none"/><text fill="#000000" stroke="none" font-family="Source Code Pro" font-size="13px" font-style="normal" font-weight="bold" text-decoration="none" x="732.5" y="595.5">running</text></g></g><g transform="translate(-302,-238) scale(1,1)"><path fill="#C0C0C0" stroke="none" d="M 897 431 L 963.9998779296875 431 Q 973.9998779296875 431 973.9998779296875 441 L 973.9998779296875 460 Q 973.9998779296875 470 963.9998779296875 470 L 897 470 Q 887 470 887 460 L 887 441 Q 887 431 897 431 Z" opacity="0.2"/></g><g transform="translate(-302,-238) scale(1,1)"><path fill="#6dceff" stroke="none" d="M 890 424 L 956.9998779296875 424 Q 966.9998779296875 424 966.9998779296875 434 L 966.9998779296875 453 Q 966.9998779296875 463 956.9998779296875 463 L 890 463 Q 880 463 880 453 L 880 434 Q 880 424 890 424 Z"/></g><g transform="translate(-302,-238) scale(1,1)"><path fill="none" stroke="#000000" d="M 890 424 L 956.9998779296875 424 Q 966.9998779296875 424 966.9998779296875 434 L 966.9998779296875 453 Q 966.9998779296875 463 956.9998779296875 463 L 890 463 Q 880 463 880 453 L 880 434 Q 880 424 890 424 Z" stroke-miterlimit="10"/></g><g transform="translate(-302,-238) scale(1,1)"><g><path fill="none" stroke="none"/><text fill="#000000" stroke="none" font-family="Source Code Pro" font-size="13px" font-style="normal" font-weight="bold" text-decoration="none" x="884.5" y="443.5">terminated</text></g></g><g transform="translate(-302,-238) scale(1,1)"><path fill="#C0C0C0" stroke="none" d="M 337 839 L 411.79986572265625 839 Q 421.79986572265625 839 421.79986572265625 849 L 421.79986572265625 868 Q 421.79986572265625 878 411.79986572265625 878 L 337 878 Q 327 878 327 868 L 327 849 Q 327 839 337 839 Z" opacity="0.2"/></g><g transform="translate(-302,-238) scale(1,1)"><path fill="#8282ff" stroke="none" d="M 330 832 L 404.79986572265625 832 Q 414.79986572265625 832 414.79986572265625 842 L 414.79986572265625 861 Q 414.79986572265625 871 404.79986572265625 871 L 330 871 Q 320 871 320 861 L 320 842 Q 320 832 330 832 Z"/></g><g transform="translate(-302,-238) scale(1,1)"><path fill="none" stroke="#000000" d="M 330 832 L 404.79986572265625 832 Q 414.79986572265625 832 414.79986572265625 842 L 414.79986572265625 861 Q 414.79986572265625 871 404.79986572265625 871 L 330 871 Q 320 871 320 861 L 320 842 Q 320 832 330 832 Z" stroke-miterlimit="10"/></g><g transform="translate(-302,-238) scale(1,1)"><g><path fill="none" stroke="none"/><text fill="#000000" stroke="none" font-family="Source Code Pro" font-size="13px" font-style="normal" font-weight="bold" text-decoration="none" x="324.5" y="851.5">interrupted</text></g></g><g transform="translate(-302,-238) scale(1,1)"><path fill="#C0C0C0" stroke="none" d="M 1313 839 L 1356.5999145507812 839 Q 1366.5999145507812 839 1366.5999145507812 849 L 1366.5999145507812 868 Q 1366.5999145507812 878 1356.5999145507812 878 L 1313 878 Q 1303 878 1303 868 L 1303 849 Q 1303 839 1313 839 Z" opacity="0.2"/></g><g transform="translate(-302,-238) scale(1,1)"><path fill="#8282ff" stroke="none" d="M 1306 832 L 1349.5999145507812 832 Q 1359.5999145507812 832 1359.5999145507812 842 L 1359.5999145507812 861 Q 1359.5999145507812 871 1349.5999145507812 871 L 1306 871 Q 1296 871 1296 861 L 1296 842 Q 1296 832 1306 832 Z"/></g><g transform="translate(-302,-238) scale(1,1)"><path fill="none" stroke="#000000" d="M 1306 832 L 1349.5999145507812 832 Q 1359.5999145507812 832 1359.5999145507812 842 L 1359.5999145507812 861 Q 1359.5999145507812 871 1349.5999145507812 871 L 1306 871 Q 1296 871 1296 861 L 1296 842 Q 1296 832 1306 832 Z" stroke-miterlimit="10"/></g><g transform="translate(-302,-238) scale(1,1)"><g><path fill="none" stroke="none"/><text fill="#000000" stroke="none" font-family="Source Code Pro" font-size="13px" font-style="normal" font-weight="bold" text-decoration="none" x="1300.5" y="851.5">delayed</text></g></g><g transform="translate(-302,-238) scale(1,1)"><path fill="#C0C0C0" stroke="none" d="M 953 839 L 1012.1998901367188 839 Q 1022.1998901367188 839 1022.1998901367188 849 L 1022.1998901367188 868 Q 1022.1998901367188 878 1012.1998901367188 878 L 953 878 Q 943 878 943 868 L 943 849 Q 943 839 953 839 Z" opacity="0.2"/></g><g transform="translate(-302,-238) scale(1,1)"><path fill="#8282ff" stroke="none" d="M 946 832 L 1005.1998901367188 832 Q 1015.1998901367188 832 1015.1998901367188 842 L 1015.1998901367188 861 Q 1015.1998901367188 871 1005.1998901367188 871 L 946 871 Q 936 871 936 861 L 936 842 Q 936 832 946 832 Z"/></g><g transform="translate(-302,-238) scale(1,1)"><path fill="none" stroke="#000000" d="M 946 832 L 1005.1998901367188 832 Q 1015.1998901367188 832 1015.1998901367188 842 L 1015.1998901367188 861 Q 1015.1998901367188 871 1005.1998901367188 871 L 946 871 Q 936 871 936 861 L 936 842 Q 936 832 946 832 Z" stroke-miterlimit="10"/></g><g transform="translate(-302,-238) scale(1,1)"><g><path fill="none" stroke="none"/><text fill="#000000" stroke="none" font-family="Source Code Pro" font-size="13px" font-style="normal" font-weight="bold" text-decoration="none" x="940.5" y="851.5">suspended</text></g></g><g transform="translate(-302,-238) scale(1,1)"><path fill="none" stroke="#000000" d="M 644 595 L 727 595" stroke-miterlimit="10"/></g><g transform="translate(-302,-238) scale(1,1)"><path fill="none" stroke="#000000" d="M 716.8373251423759 599.209517756016 L 727 595 L 716.8373251423758 590.790482243984" stroke-miterlimit="10"/></g><g transform="translate(-302,-238) scale(1,1)"><g><path fill="none" stroke="none"/><text fill="#000000" stroke="none" font-family="Source Code Pro" font-size="13px" font-style="normal" font-weight="normal" text-decoration="none" x="653.5" y="586.5">schedule</text></g></g><g transform="translate(-302,-238) scale(1,1)"><path fill="none" stroke="#000000" d="M 874 343 L 876 274" stroke-miterlimit="10"/></g><g transform="translate(-302,-238) scale(1,1)"><path fill="none" stroke="#000000" d="M 879.9133039154419 284.28037219488607 L 876 274 L 871.4978028433272 284.0364446275784" stroke-miterlimit="10"/></g><g transform="translate(-302,-238) scale(1,1)"><g><path fill="none" stroke="none"/><text fill="#000000" stroke="none" font-family="Source Code Pro" font-size="13px" font-style="normal" font-weight="normal" text-decoration="none" x="718.5" y="316.5">process destruction</text></g></g><g transform="translate(-302,-238) scale(1,1)"><path fill="none" stroke="#000000" d="M 913 423 L 876 350" stroke-miterlimit="10"/></g><g transform="translate(-302,-238) scale(1,1)"><path fill="none" stroke="#000000" d="M 884.3492525604707 357.161702428995 L 876 350 L 876.8397247509655 360.96790145573055" stroke-miterlimit="10"/></g><g transform="translate(-302,-238) scale(1,1)"><path fill="none" stroke="#000000" d="M 781 575 L 900 464" stroke-miterlimit="10"/></g><g transform="translate(-302,-238) scale(1,1)"><path fill="none" stroke="#000000" d="M 895.4397556271905 474.01020335758767 L 900 464 L 889.697137604912 467.85370295532516" stroke-miterlimit="10"/></g><g transform="translate(-302,-238) scale(1,1)"><g><path fill="none" stroke="none"/><text fill="#000000" stroke="none" font-family="Source Code Pro" font-size="13px" font-style="normal" font-weight="normal" text-decoration="none" x="774.5" y="512.5">completed</text></g></g><g transform="translate(-302,-238) scale(1,1)"><path fill="#C0C0C0" stroke="none" d="M 962 599 L 1025 599 Q 1028 599 1028 602 L 1028 601 Q 1028 604 1025 604 L 962 604 Q 959 604 959 601 L 959 602 Q 959 599 962 599 Z" opacity="0.2"/></g><g transform="translate(-302,-238) scale(1,1)"><path fill="#000000" stroke="none" d="M 955 592 L 1018 592 Q 1021 592 1021 595 L 1021 595 Q 1021 598 1018 598 L 955 598 Q 952 598 952 595 L 952 595 Q 952 592 955 592 Z"/></g><g transform="translate(-302,-238) scale(1,1)"><path fill="none" stroke="#000000" d="M 983 591 L 858 464" stroke-miterlimit="10"/></g><g transform="translate(-302,-238) scale(1,1)"><path fill="none" stroke="#000000" d="M 868.12894698971 468.2900387969859 L 858 464 L 862.1287315778009 474.1957626276051" stroke-miterlimit="10"/></g><g transform="translate(-302,-238) scale(1,1)"><g><path fill="none" stroke="none"/><text fill="#000000" stroke="none" font-family="Source Code Pro" font-size="13px" font-style="normal" font-weight="normal" text-decoration="none" x="873.5" y="541.5">delete</text></g></g><g transform="translate(-302,-238) scale(1,1)"><path fill="none" stroke="#000000" d="M 727 616 L 398 831" stroke-miterlimit="10"/></g><g transform="translate(-302,-238) scale(1,1)"><path fill="none" stroke="#000000" d="M 404.2044262643301 821.916768486354 L 398 831 L 408.81000648326614 828.9643772864933" stroke-miterlimit="10"/></g><g transform="translate(-302,-238) scale(1,1)"><g><path fill="none" stroke="none"/><text fill="#000000" stroke="none" font-family="Source Code Pro" font-size="13px" font-style="normal" font-weight="normal" text-decoration="none" x="598.5" y="708.5">interrupt</text></g></g><g transform="translate(-302,-238) scale(1,1)"><path fill="none" stroke="#000000" d="M 793 610 L 1295 837" stroke-miterlimit="10"/></g><g transform="translate(-302,-238) scale(1,1)"><path fill="none" stroke="#000000" d="M 1284.0056229291347 836.6483285288351 L 1295 837 L 1287.4744707002799 828.9771321362587" stroke-miterlimit="10"/></g><g transform="translate(-302,-238) scale(1,1)"><g><path fill="none" stroke="none"/><text fill="#000000" stroke="none" font-family="Source Code Pro" font-size="13px" font-style="normal" font-weight="normal" text-decoration="none" x="1022.5" y="715.5">timeout</text></g></g><g transform="translate(-302,-238) scale(1,1)"><path fill="none" stroke="#000000" d="M 777 616 L 958 831" stroke-miterlimit="10"/></g><g transform="translate(-302,-238) scale(1,1)"><path fill="none" stroke="#000000" d="M 948.2346757985434 825.9365581626283 L 958 831 L 954.6752670960142 820.5144789773158" stroke-miterlimit="10"/></g><g transform="translate(-302,-238) scale(1,1)"><g><path fill="none" stroke="none"/><text fill="#000000" stroke="none" font-family="Source Code Pro" font-size="13px" font-style="normal" font-weight="normal" text-decoration="none" x="830.5" y="708.5">wait for resource</text></g></g><g transform="translate(-302,-238) scale(1,1)"><path fill="none" stroke="#000000" d="M 386 831 L 593 616" stroke-miterlimit="10"/></g><g transform="translate(-302,-238) scale(1,1)"><path fill="none" stroke="#000000" d="M 588.9838611843544 626.2406361625372 L 593 616 L 582.9189377350763 620.4013842834647" stroke-miterlimit="10"/></g><g transform="translate(-302,-238) scale(1,1)"><g><path fill="none" stroke="none"/><text fill="#000000" stroke="none" font-family="Source Code Pro" font-size="13px" font-style="normal" font-weight="normal" text-decoration="none" x="382.5" y="699.5">interrupt return</text></g></g><g transform="translate(-302,-238) scale(1,1)"><path fill="none" stroke="#000000" d="M 415 831 L 976 598" stroke-miterlimit="10"/></g><g transform="translate(-302,-238) scale(1,1)"><path fill="none" stroke="#000000" d="M 968.2292365960362 605.7855787273405 L 976 598 L 965.0000049884967 598.0104760156253" stroke-miterlimit="10"/></g><g transform="translate(-302,-238) scale(1,1)"><path fill="none" stroke="#000000" d="M 947 831 L 643 616" stroke-miterlimit="10"/></g><g transform="translate(-302,-238) scale(1,1)"><path fill="none" stroke="#000000" d="M 653.7279447260804 618.4312963525995 L 643 616 L 648.8666163260087 625.304988602003" stroke-miterlimit="10"/></g><g transform="translate(-302,-238) scale(1,1)"><g><path fill="none" stroke="none"/><text fill="#000000" stroke="none" font-family="Source Code Pro" font-size="13px" font-style="normal" font-weight="normal" text-decoration="none" x="694.5" y="764.5">resource available</text></g></g><g transform="translate(-302,-238) scale(1,1)"><path fill="none" stroke="#000000" d="M 1300 831 L 991 598" stroke-miterlimit="10"/></g><g transform="translate(-302,-238) scale(1,1)"><path fill="none" stroke="#000000" d="M 1001.648760749591 600.7575160013986 L 991 598 L 996.5799526734496 607.4796692010883" stroke-miterlimit="10"/></g><g transform="translate(-302,-238) scale(1,1)"><path fill="none" stroke="#000000" d="M 976 831 L 986 598" stroke-miterlimit="10"/></g><g transform="translate(-302,-238) scale(1,1)"><path fill="none" stroke="#000000" d="M 989.7698810018486 608.3338278112179 L 986 598 L 981.3585886997472 607.9728281415998" stroke-miterlimit="10"/></g><g transform="translate(-302,-238) scale(1,1)"><path fill="none" stroke="#000000" d="M 845 423 L 872 350" stroke-miterlimit="10"/></g><g transform="translate(-302,-238) scale(1,1)"><path fill="none" stroke="#000000" d="M 872.4227321259194 360.99187416002 L 872 350 L 864.5264879963637 358.0713455093624" stroke-miterlimit="10"/></g></g></svg>