<svg version="1.1" xmlns="http://www.w3.org/2000/svg" xmlns:xlink="http://www.w3.org/1999/xlink" width="989.9995727539062" height="575"><defs/><g><g transform="translate(-214,-118) scale(1,1)"><rect fill="#C0C0C0" stroke="none" x="241" y="391" width="198.39971923828125" height="67" opacity="0.2"/></g><g transform="translate(-214,-118) scale(1,1)"><rect fill="#ffebd8" stroke="none" x="234" y="384" width="198.39971923828125" height="67"/></g><g transform="translate(-214,-118) scale(1,1)"><path fill="none" stroke="#000000" d="M 234 384 L 432.39971923828125 384 L 432.39971923828125 451 L 234 451 L 234 384 Z Z" stroke-miterlimit="10"/></g><g transform="translate(-214,-118) scale(1,1)"><rect fill="#ffebd8" stroke="none" x="224" y="391" width="20" height="10"/></g><g transform="translate(-214,-118) scale(1,1)"><path fill="none" stroke="#000000" d="M 224 391 L 244 391 L 244 401 L 224 401 L 224 391 Z Z" stroke-miterlimit="10"/></g><g transform="translate(-214,-118) scale(1,1)"><rect fill="#ffebd8" stroke="none" x="224" y="411" width="20" height="10"/></g><g transform="translate(-214,-118) scale(1,1)"><path fill="none" stroke="#000000" d="M 224 411 L 244 411 L 244 421 L 224 421 L 224 411 Z Z" stroke-miterlimit="10"/></g><g transform="translate(-214,-118) scale(1,1)"><g><path fill="none" stroke="none"/><text fill="#000000" stroke="none" font-family="Source Code Pro" font-size="13px" font-style="normal" font-weight="bold" text-decoration="none" x="299.1999206542969" y="403.5">dispatcher</text></g></g><g transform="translate(-214,-118) scale(1,1)"><rect fill="#C0C0C0" stroke="none" x="1001" y="391" width="198.39971923828125" height="67" opacity="0.2"/></g><g transform="translate(-214,-118) scale(1,1)"><rect fill="#ffebd8" stroke="none" x="994" y="384" width="198.39971923828125" height="67"/></g><g transform="translate(-214,-118) scale(1,1)"><path fill="none" stroke="#000000" d="M 994 384 L 1192.3997192382812 384 L 1192.3997192382812 451 L 994 451 L 994 384 Z Z" stroke-miterlimit="10"/></g><g transform="translate(-214,-118) scale(1,1)"><rect fill="#ffebd8" stroke="none" x="984" y="391" width="20" height="10"/></g><g transform="translate(-214,-118) scale(1,1)"><path fill="none" stroke="#000000" d="M 984 391 L 1004 391 L 1004 401 L 984 401 L 984 391 Z Z" stroke-miterlimit="10"/></g><g transform="translate(-214,-118) scale(1,1)"><rect fill="#ffebd8" stroke="none" x="984" y="411" width="20" height="10"/></g><g transform="translate(-214,-118) scale(1,1)"><path fill="none" stroke="#000000" d="M 984 411 L 1004 411 L 1004 421 L 984 421 L 984 411 Z Z" stroke-miterlimit="10"/></g><g transform="translate(-214,-118) scale(1,1)"><g><path fill="none" stroke="none"/><text fill="#000000" stroke="none" font-family="Source Code Pro" font-size="13px" font-style="normal" font-weight="bold" text-decoration="none" x="1066.9999084472656" y="403.5">admitter</text></g></g><g transform="translate(-214,-118) scale(1,1)"><rect fill="#C0C0C0" stroke="none" x="617" y="391" width="198.39971923828125" height="67" opacity="0.2"/></g><g transform="translate(-214,-118) scale(1,1)"><rect fill="#ffebd8" stroke="none" x="610" y="384" width="198.39971923828125" height="67"/></g><g transform="translate(-214,-118) scale(1,1)"><path fill="none" stroke="#000000" d="M 610 384 L 808.3997192382812 384 L 808.3997192382812 451 L 610 451 L 610 384 Z Z" stroke-miterlimit="10"/></g><g transform="translate(-214,-118) scale(1,1)"><rect fill="#ffebd8" stroke="none" x="600" y="391" width="20" height="10"/></g><g transform="translate(-214,-118) scale(1,1)"><path fill="none" stroke="#000000" d="M 600 391 L 620 391 L 620 401 L 600 401 L 600 391 Z Z" stroke-miterlimit="10"/></g><g transform="translate(-214,-118) scale(1,1)"><rect fill="#ffebd8" stroke="none" x="600" y="411" width="20" height="10"/></g><g transform="translate(-214,-118) scale(1,1)"><path fill="none" stroke="#000000" d="M 600 411 L 620 411 L 620 421 L 600 421 L 600 411 Z Z" stroke-miterlimit="10"/></g><g transform="translate(-214,-118) scale(1,1)"><g><path fill="none" stroke="none"/><text fill="#000000" stroke="none" font-family="Source Code Pro" font-size="13px" font-style="normal" font-weight="bold" text-decoration="none" x="686.89990234375" y="403.5">swapper</text></g></g><g transform="translate(-214,-118) scale(1,1)"><rect fill="#C0C0C0" stroke="none" x="241" y="623" width="198.39971923828125" height="67" opacity="0.2"/></g><g transform="translate(-214,-118) scale(1,1)"><rect fill="#ffd6ad" stroke="none" x="234" y="616" width="198.39971923828125" height="67"/></g><g transform="translate(-214,-118) scale(1,1)"><path fill="none" stroke="#000000" d="M 234 616 L 432.39971923828125 616 L 432.39971923828125 683 L 234 683 L 234 616 Z Z" stroke-miterlimit="10"/></g><g transform="translate(-214,-118) scale(1,1)"><rect fill="#ffd6ad" stroke="none" x="224" y="623" width="20" height="10"/></g><g transform="translate(-214,-118) scale(1,1)"><path fill="none" stroke="#000000" d="M 224 623 L 244 623 L 244 633 L 224 633 L 224 623 Z Z" stroke-miterlimit="10"/></g><g transform="translate(-214,-118) scale(1,1)"><rect fill="#ffd6ad" stroke="none" x="224" y="643" width="20" height="10"/></g><g transform="translate(-214,-118) scale(1,1)"><path fill="none" stroke="#000000" d="M 224 643 L 244 643 L 244 653 L 224 653 L 224 643 Z Z" stroke-miterlimit="10"/></g><g transform="translate(-214,-118) scale(1,1)"><g><path fill="none" stroke="none"/><text fill="#000000" stroke="none" font-family="Source Code Pro" font-size="13px" font-style="normal" font-weight="bold" text-decoration="none" x="248.5" y="635.5">earliest_deadline_first</text></g></g><g transform="translate(-214,-118) scale(1,1)"><g><path fill="none" stroke="none"/><text fill="#000000" stroke="none" font-family="Source Code Pro" font-size="13px" font-style="normal" font-weight="normal" text-decoration="none" x="271.89996337890625" y="650.5">(from dispatcher)</text></g></g><g transform="translate(-214,-118) scale(1,1)"><rect fill="#C0C0C0" stroke="none" x="1001" y="623" width="198.39971923828125" height="67" opacity="0.2"/></g><g transform="translate(-214,-118) scale(1,1)"><rect fill="#ffd6ad" stroke="none" x="994" y="616" width="198.39971923828125" height="67"/></g><g transform="translate(-214,-118) scale(1,1)"><path fill="none" stroke="#000000" d="M 994 616 L 1192.3997192382812 616 L 1192.3997192382812 683 L 994 683 L 994 616 Z Z" stroke-miterlimit="10"/></g><g transform="translate(-214,-118) scale(1,1)"><rect fill="#ffd6ad" stroke="none" x="984" y="623" width="20" height="10"/></g><g transform="translate(-214,-118) scale(1,1)"><path fill="none" stroke="#000000" d="M 984 623 L 1004 623 L 1004 633 L 984 633 L 984 623 Z Z" stroke-miterlimit="10"/></g><g transform="translate(-214,-118) scale(1,1)"><rect fill="#ffd6ad" stroke="none" x="984" y="643" width="20" height="10"/></g><g transform="translate(-214,-118) scale(1,1)"><path fill="none" stroke="#000000" d="M 984 643 L 1004 643 L 1004 653 L 984 653 L 984 643 Z Z" stroke-miterlimit="10"/></g><g transform="translate(-214,-118) scale(1,1)"><g><path fill="none" stroke="none"/><text fill="#000000" stroke="none" font-family="Source Code Pro" font-size="13px" font-style="normal" font-weight="bold" text-decoration="none" x="1043.5999450683594" y="635.5">rate_monotonic</text></g></g><g transform="translate(-214,-118) scale(1,1)"><g><path fill="none" stroke="none"/><text fill="#000000" stroke="none" font-family="Source Code Pro" font-size="13px" font-style="normal" font-weight="normal" text-decoration="none" x="1039.699951171875" y="650.5">(from admitter)</text></g></g><g transform="translate(-214,-118) scale(1,1)"><rect fill="#C0C0C0" stroke="none" x="663" y="175" width="37.91994628906252" height="15" opacity="0.2"/></g><g transform="translate(-214,-118) scale(1,1)"><rect fill="#C0C0C0" stroke="none" x="663" y="189" width="94.79986572265625" height="53" opacity="0.2"/></g><g transform="translate(-214,-118) scale(1,1)"><rect fill="#d8ffeb" stroke="none" x="656" y="183" width="94.79986572265625" height="52"/></g><g transform="translate(-214,-118) scale(1,1)"><path fill="none" stroke="#000000" d="M 656 183 L 750.7998657226562 183 L 750.7998657226562 235 L 656 235 L 656 183 Z Z" stroke-miterlimit="10"/></g><g transform="translate(-214,-118) scale(1,1)"><rect fill="#d8ffeb" stroke="none" x="656" y="168" width="37.91994628906252" height="15"/></g><g transform="translate(-214,-118) scale(1,1)"><path fill="none" stroke="#000000" d="M 656 168 L 693.9199462890625 168 L 693.9199462890625 183 L 656 183 L 656 168 Z Z" stroke-miterlimit="10"/></g><g transform="translate(-214,-118) scale(1,1)"><rect fill="#d8ffeb" stroke="none" x="656" y="182" width="94.79986572265625" height="53"/></g><g transform="translate(-214,-118) scale(1,1)"><path fill="none" stroke="#000000" d="M 656 182 L 750.7998657226562 182 L 750.7998657226562 235 L 656 235 L 656 182 Z Z" stroke-miterlimit="10"/></g><g transform="translate(-214,-118) scale(1,1)"><path fill="none" stroke="#000000" d="M 685.9199462890625 171 L 685.9199462890625 175" stroke-miterlimit="10"/></g><g transform="translate(-214,-118) scale(1,1)"><path fill="none" stroke="#000000" d="M 682.9199462890625 179 L 682.9199462890625 175 L 688.9199462890625 175" stroke-miterlimit="10"/></g><g transform="translate(-214,-118) scale(1,1)"><path fill="none" stroke="#000000" d="M 688.9199462890625 179 L 688.9199462890625 175 L 682.9199462890625 175" stroke-miterlimit="10"/></g><g transform="translate(-214,-118) scale(1,1)"><g><path fill="none" stroke="none"/><text fill="#000000" stroke="none" font-family="Source Code Pro" font-size="13px" font-style="normal" font-weight="normal" text-decoration="none" x="668.2999877929688" y="200.5">«Service»</text></g></g><g transform="translate(-214,-118) scale(1,1)"><g><path fill="none" stroke="none"/><text fill="#000000" stroke="none" font-family="Source Code Pro" font-size="13px" font-style="normal" font-weight="bold" text-decoration="none" x="668.2999877929688" y="215.5">scheduler</text></g></g><g transform="translate(-214,-118) scale(1,1)"><g><path fill="none" stroke="none"/><text fill="#000000" stroke="none" font-family="Source Code Pro" font-size="13px" font-style="normal" font-weight="normal" text-decoration="none" x="660.5" y="230.5">(from core)</text></g></g><g transform="translate(-214,-118) scale(1,1)"><path fill="none" stroke="#000000" d="M 387 383 L 655 229" stroke-miterlimit="10" stroke-dasharray="3"/></g><g transform="translate(-214,-118) scale(1,1)"><path fill="#FFFFFF" stroke="none" d="M 641.5715842978466 246.42634935177645 L 655 229 L 633.1823863984484 231.82696599438236"/></g><g transform="translate(-214,-118) scale(1,1)"><path fill="none" stroke="#000000" d="M 641.5715842978466 246.42634935177645 L 655 229 L 633.1823863984484 231.82696599438236 L 641.5715842978466 246.42634935177645" stroke-miterlimit="10"/></g><g transform="translate(-214,-118) scale(1,1)"><path fill="none" stroke="#000000" d="M 1027 383 L 752 228" stroke-miterlimit="10" stroke-dasharray="3"/></g><g transform="translate(-214,-118) scale(1,1)"><path fill="#FFFFFF" stroke="none" d="M 773.8403297246563 230.64575084206672 L 752 228 L 765.5726168898991 245.31427361340997"/></g><g transform="translate(-214,-118) scale(1,1)"><path fill="none" stroke="#000000" d="M 773.8403297246563 230.64575084206672 L 752 228 L 765.5726168898991 245.31427361340997 L 773.8403297246563 230.64575084206672" stroke-miterlimit="10"/></g><g transform="translate(-214,-118) scale(1,1)"><path fill="none" stroke="#000000" d="M 704 383 L 703 236" stroke-miterlimit="10" stroke-dasharray="3"/></g><g transform="translate(-214,-118) scale(1,1)"><path fill="#FFFFFF" stroke="none" d="M 711.5571052008208 256.2676084080506 L 703 236 L 694.7194237710611 256.3821504585932"/></g><g transform="translate(-214,-118) scale(1,1)"><path fill="none" stroke="#000000" d="M 711.5571052008208 256.2676084080506 L 703 236 L 694.7194237710611 256.3821504585932 L 711.5571052008208 256.2676084080506" stroke-miterlimit="10"/></g><g transform="translate(-214,-118) scale(1,1)"><rect fill="#C0C0C0" stroke="none" x="919" y="135" width="281.99957275390625" height="147" opacity="0.2"/></g><g transform="translate(-214,-118) scale(1,1)"><rect fill="#d8d8ff" stroke="none" x="912" y="128" width="281.99957275390625" height="147"/></g><g transform="translate(-214,-118) scale(1,1)"><path fill="none" stroke="#000000" d="M 912 128 L 1193.9995727539062 128 L 1193.9995727539062 275 L 912 275 L 912 128 Z Z" stroke-miterlimit="10"/></g><g transform="translate(-214,-118) scale(1,1)"><path fill="none" stroke="#000000" d="M 912 168 L 1193.9995727539062 168" stroke-miterlimit="10"/></g><g transform="translate(-214,-118) scale(1,1)"><path fill="none" stroke="#000000" d="M 912 266 L 1193.9995727539062 266" stroke-miterlimit="10"/></g><g transform="translate(-214,-118) scale(1,1)"><g><path fill="none" stroke="none"/><text fill="#000000" stroke="none" font-family="Source Code Pro" font-size="13px" font-style="normal" font-weight="bold" text-decoration="none" x="1025.6998291015625" y="147.5">process</text></g></g><g transform="translate(-214,-118) scale(1,1)"><g><path fill="none" stroke="none"/><text fill="#000000" stroke="none" font-family="Source Code Pro" font-size="13px" font-style="normal" font-weight="normal" text-decoration="none" x="1002.2998657226562" y="162.5">(from kernel)</text></g></g><g transform="translate(-214,-118) scale(1,1)"><g><path fill="none" stroke="none"/><text fill="#000000" stroke="none" font-family="Source Code Pro" font-size="13px" font-style="normal" font-weight="normal" text-decoration="none" x="917" y="185.5">+id {id, readOnly, ordered, unique}</text></g></g><g transform="translate(-214,-118) scale(1,1)"><g><path fill="none" stroke="none"/><text fill="#000000" stroke="none" font-family="Source Code Pro" font-size="13px" font-style="normal" font-weight="normal" text-decoration="none" x="917" y="200.5">+image {readOnly}</text></g></g><g transform="translate(-214,-118) scale(1,1)"><g><path fill="none" stroke="none"/><text fill="#000000" stroke="none" font-family="Source Code Pro" font-size="13px" font-style="normal" font-weight="normal" text-decoration="none" x="917" y="215.5">+memory</text></g></g><g transform="translate(-214,-118) scale(1,1)"><g><path fill="none" stroke="none"/><text fill="#000000" stroke="none" font-family="Source Code Pro" font-size="13px" font-style="normal" font-weight="normal" text-decoration="none" x="917" y="230.5">+descriptors[0..*]</text></g></g><g transform="translate(-214,-118) scale(1,1)"><g><path fill="none" stroke="none"/><text fill="#000000" stroke="none" font-family="Source Code Pro" font-size="13px" font-style="normal" font-weight="normal" text-decoration="none" x="917" y="245.5">+permissions[1..*]</text></g></g><g transform="translate(-214,-118) scale(1,1)"><g><path fill="none" stroke="none"/><text fill="#000000" stroke="none" font-family="Source Code Pro" font-size="13px" font-style="normal" font-weight="normal" text-decoration="none" x="917" y="260.5">+context</text></g></g><g transform="translate(-214,-118) scale(1,1)"><path fill="none" stroke="#000000" d="M 752 201 L 911 201" stroke-miterlimit="10" stroke-dasharray="3"/></g><g transform="translate(-214,-118) scale(1,1)"><path fill="none" stroke="#000000" d="M 900.8373251423759 205.209517756016 L 911 201 L 900.8373251423758 196.790482243984" stroke-miterlimit="10"/></g><g transform="translate(-214,-118) scale(1,1)"><path fill="#C0C0C0" stroke="none" d="M 314.1998596191406 540 C 314.1998596191406 528.4020192 323.6018788191406 519 335.1998596191406 519 C 346.79784041914064 519 356.1998596191406 528.4020192 356.1998596191406 540 C 356.1998596191406 551.5979808 346.79784041914064 561 335.1998596191406 561 C 323.6018788191406 561 314.1998596191406 551.5979808 314.1998596191406 540 Z" opacity="0.2"/></g><g transform="translate(-214,-118) scale(1,1)"><path fill="#ffd8d8" stroke="none" d="M 307.1998596191406 533 C 307.1998596191406 521.4020192 316.6018788191406 512 328.1998596191406 512 C 339.79784041914064 512 349.1998596191406 521.4020192 349.1998596191406 533 C 349.1998596191406 544.5979808 339.79784041914064 554 328.1998596191406 554 C 316.6018788191406 554 307.1998596191406 544.5979808 307.1998596191406 533 Z"/></g><g transform="translate(-214,-118) scale(1,1)"><path fill="none" stroke="#000000" d="M 307.1998596191406 533 C 307.1998596191406 521.4020192 316.6018788191406 512 328.1998596191406 512 C 339.79784041914064 512 349.1998596191406 521.4020192 349.1998596191406 533 C 349.1998596191406 544.5979808 339.79784041914064 554 328.1998596191406 554 C 316.6018788191406 554 307.1998596191406 544.5979808 307.1998596191406 533 Z" stroke-miterlimit="10"/></g><g transform="translate(-214,-118) scale(1,1)"><g><path fill="none" stroke="none"/><text fill="#000000" stroke="none" font-family="Source Code Pro" font-size="13px" font-style="normal" font-weight="bold" text-decoration="none" x="254.0999755859375" y="573.5">dispatcher_strategy</text></g></g><g transform="translate(-214,-118) scale(1,1)"><path fill="#C0C0C0" stroke="none" d="M 690.1998596191406 540 C 690.1998596191406 528.4020192 699.6018788191407 519 711.1998596191406 519 C 722.7978404191406 519 732.1998596191406 528.4020192 732.1998596191406 540 C 732.1998596191406 551.5979808 722.7978404191406 561 711.1998596191406 561 C 699.6018788191407 561 690.1998596191406 551.5979808 690.1998596191406 540 Z" opacity="0.2"/></g><g transform="translate(-214,-118) scale(1,1)"><path fill="#ffd8d8" stroke="none" d="M 683.1998596191406 533 C 683.1998596191406 521.4020192 692.6018788191407 512 704.1998596191406 512 C 715.7978404191406 512 725.1998596191406 521.4020192 725.1998596191406 533 C 725.1998596191406 544.5979808 715.7978404191406 554 704.1998596191406 554 C 692.6018788191407 554 683.1998596191406 544.5979808 683.1998596191406 533 Z"/></g><g transform="translate(-214,-118) scale(1,1)"><path fill="none" stroke="#000000" d="M 683.1998596191406 533 C 683.1998596191406 521.4020192 692.6018788191407 512 704.1998596191406 512 C 715.7978404191406 512 725.1998596191406 521.4020192 725.1998596191406 533 C 725.1998596191406 544.5979808 715.7978404191406 554 704.1998596191406 554 C 692.6018788191407 554 683.1998596191406 544.5979808 683.1998596191406 533 Z" stroke-miterlimit="10"/></g><g transform="translate(-214,-118) scale(1,1)"><g><path fill="none" stroke="none"/><text fill="#000000" stroke="none" font-family="Source Code Pro" font-size="13px" font-style="normal" font-weight="bold" text-decoration="none" x="641.7999572753906" y="573.5">swapper_strategy</text></g></g><g transform="translate(-214,-118) scale(1,1)"><path fill="#C0C0C0" stroke="none" d="M 1074.1998596191406 540 C 1074.1998596191406 528.4020192 1083.6018788191407 519 1095.1998596191406 519 C 1106.7978404191406 519 1116.1998596191406 528.4020192 1116.1998596191406 540 C 1116.1998596191406 551.5979808 1106.7978404191406 561 1095.1998596191406 561 C 1083.6018788191407 561 1074.1998596191406 551.5979808 1074.1998596191406 540 Z" opacity="0.2"/></g><g transform="translate(-214,-118) scale(1,1)"><path fill="#ffd8d8" stroke="none" d="M 1067.1998596191406 533 C 1067.1998596191406 521.4020192 1076.6018788191407 512 1088.1998596191406 512 C 1099.7978404191406 512 1109.1998596191406 521.4020192 1109.1998596191406 533 C 1109.1998596191406 544.5979808 1099.7978404191406 554 1088.1998596191406 554 C 1076.6018788191407 554 1067.1998596191406 544.5979808 1067.1998596191406 533 Z"/></g><g transform="translate(-214,-118) scale(1,1)"><path fill="none" stroke="#000000" d="M 1067.1998596191406 533 C 1067.1998596191406 521.4020192 1076.6018788191407 512 1088.1998596191406 512 C 1099.7978404191406 512 1109.1998596191406 521.4020192 1109.1998596191406 533 C 1109.1998596191406 544.5979808 1099.7978404191406 554 1088.1998596191406 554 C 1076.6018788191407 554 1067.1998596191406 544.5979808 1067.1998596191406 533 Z" stroke-miterlimit="10"/></g><g transform="translate(-214,-118) scale(1,1)"><g><path fill="none" stroke="none"/><text fill="#000000" stroke="none" font-family="Source Code Pro" font-size="13px" font-style="normal" font-weight="bold" text-decoration="none" x="1021.8999633789062" y="573.5">admitter_strategy</text></g></g><g transform="translate(-214,-118) scale(1,1)"><path fill="none" stroke="#000000" d="M 328 615 L 328 554" stroke-miterlimit="10"/></g><g transform="translate(-214,-118) scale(1,1)"><path fill="none" stroke="#000000" d="M 1088 615 L 1088 554" stroke-miterlimit="10"/></g><g transform="translate(-214,-118) scale(1,1)"><path fill="none" stroke="#000000" d="M 328 511 L 328 452" stroke-miterlimit="10" stroke-dasharray="3"/></g><g transform="translate(-214,-118) scale(1,1)"><path fill="none" stroke="#000000" d="M 332.209517756016 462.16267485762415 L 328 452 L 323.790482243984 462.16267485762415" stroke-miterlimit="10"/></g><g transform="translate(-214,-118) scale(1,1)"><path fill="none" stroke="#000000" d="M 704 511 L 704 452" stroke-miterlimit="10" stroke-dasharray="3"/></g><g transform="translate(-214,-118) scale(1,1)"><path fill="none" stroke="#000000" d="M 708.209517756016 462.16267485762415 L 704 452 L 699.790482243984 462.16267485762415" stroke-miterlimit="10"/></g><g transform="translate(-214,-118) scale(1,1)"><path fill="none" stroke="#000000" d="M 1088 511 L 1088 452" stroke-miterlimit="10" stroke-dasharray="3"/></g><g transform="translate(-214,-118) scale(1,1)"><path fill="none" stroke="#000000" d="M 1092.2095177560159 462.16267485762415 L 1088 452 L 1083.7904822439841 462.16267485762415" stroke-miterlimit="10"/></g><g transform="translate(-214,-118) scale(1,1)"><rect fill="#C0C0C0" stroke="none" x="497" y="623" width="198.39971923828125" height="67" opacity="0.2"/></g><g transform="translate(-214,-118) scale(1,1)"><rect fill="#ffd6ad" stroke="none" x="490" y="616" width="198.39971923828125" height="67"/></g><g transform="translate(-214,-118) scale(1,1)"><path fill="none" stroke="#000000" d="M 490 616 L 688.3997192382812 616 L 688.3997192382812 683 L 490 683 L 490 616 Z Z" stroke-miterlimit="10"/></g><g transform="translate(-214,-118) scale(1,1)"><rect fill="#ffd6ad" stroke="none" x="480" y="623" width="20" height="10"/></g><g transform="translate(-214,-118) scale(1,1)"><path fill="none" stroke="#000000" d="M 480 623 L 500 623 L 500 633 L 480 633 L 480 623 Z Z" stroke-miterlimit="10"/></g><g transform="translate(-214,-118) scale(1,1)"><rect fill="#ffd6ad" stroke="none" x="480" y="643" width="20" height="10"/></g><g transform="translate(-214,-118) scale(1,1)"><path fill="none" stroke="#000000" d="M 480 643 L 500 643 L 500 653 L 480 653 L 480 643 Z Z" stroke-miterlimit="10"/></g><g transform="translate(-214,-118) scale(1,1)"><g><path fill="none" stroke="none"/><text fill="#000000" stroke="none" font-family="Source Code Pro" font-size="13px" font-style="normal" font-weight="bold" text-decoration="none" x="578.5998840332031" y="635.5">lazy</text></g></g><g transform="translate(-214,-118) scale(1,1)"><g><path fill="none" stroke="none"/><text fill="#000000" stroke="none" font-family="Source Code Pro" font-size="13px" font-style="normal" font-weight="normal" text-decoration="none" x="539.5999450683594" y="650.5">(from swapper)</text></g></g><g transform="translate(-214,-118) scale(1,1)"><rect fill="#C0C0C0" stroke="none" x="745" y="623" width="198.39971923828125" height="67" opacity="0.2"/></g><g transform="translate(-214,-118) scale(1,1)"><rect fill="#ffd6ad" stroke="none" x="738" y="616" width="198.39971923828125" height="67"/></g><g transform="translate(-214,-118) scale(1,1)"><path fill="none" stroke="#000000" d="M 738 616 L 936.3997192382812 616 L 936.3997192382812 683 L 738 683 L 738 616 Z Z" stroke-miterlimit="10"/></g><g transform="translate(-214,-118) scale(1,1)"><rect fill="#ffd6ad" stroke="none" x="728" y="623" width="20" height="10"/></g><g transform="translate(-214,-118) scale(1,1)"><path fill="none" stroke="#000000" d="M 728 623 L 748 623 L 748 633 L 728 633 L 728 623 Z Z" stroke-miterlimit="10"/></g><g transform="translate(-214,-118) scale(1,1)"><rect fill="#ffd6ad" stroke="none" x="728" y="643" width="20" height="10"/></g><g transform="translate(-214,-118) scale(1,1)"><path fill="none" stroke="#000000" d="M 728 643 L 748 643 L 748 653 L 728 653 L 728 643 Z Z" stroke-miterlimit="10"/></g><g transform="translate(-214,-118) scale(1,1)"><g><path fill="none" stroke="none"/><text fill="#000000" stroke="none" font-family="Source Code Pro" font-size="13px" font-style="normal" font-weight="bold" text-decoration="none" x="818.7998962402344" y="635.5">demand</text></g></g><g transform="translate(-214,-118) scale(1,1)"><g><path fill="none" stroke="none"/><text fill="#000000" stroke="none" font-family="Source Code Pro" font-size="13px" font-style="normal" font-weight="normal" text-decoration="none" x="787.5999450683594" y="650.5">(from swapper)</text></g></g><g transform="translate(-214,-118) scale(1,1)"><path fill="none" stroke="#000000" d="M 623 615 L 686.1276595744681 554" stroke-miterlimit="10"/></g><g transform="translate(-214,-118) scale(1,1)"><path fill="none" stroke="#000000" d="M 790 615 L 723.2127659574468 554" stroke-miterlimit="10"/></g></g></svg>